G04 EAGLE Gerber RS-274X export*
G75*
%MOMM*%
%FSLAX34Y34*%
%LPD*%
%INTop Copper*%
%IPPOS*%
%AMOC8*
5,1,8,0,0,1.08239X$1,22.5*%
G01*
%ADD10R,10.800000X10.410000*%
%ADD11R,1.066800X2.159000*%
%ADD12R,1.900000X4.700000*%
%ADD13R,1.300000X3.600000*%
%ADD14C,1.524000*%
%ADD15R,1.600000X1.803000*%
%ADD16C,2.000000*%
%ADD17R,1.803000X1.600000*%
%ADD18R,0.660400X2.032000*%
%ADD19R,1.000000X1.100000*%
%ADD20R,1.500000X1.300000*%
%ADD21R,2.400000X2.400000*%
%ADD22C,4.016000*%
%ADD23R,1.200000X0.550000*%
%ADD24R,0.700000X0.900000*%
%ADD25R,4.500000X3.500000*%
%ADD26R,1.300000X1.500000*%
%ADD27C,1.500000*%
%ADD28C,1.700000*%
%ADD29R,6.200000X5.400000*%
%ADD30R,1.600000X1.000000*%
%ADD31R,1.600000X3.000000*%
%ADD32C,0.900000*%
%ADD33C,0.500000*%
%ADD34C,1.000000*%

G36*
X640952Y139010D02*
X640952Y139010D01*
X641016Y139009D01*
X641091Y139030D01*
X641167Y139041D01*
X641226Y139067D01*
X641288Y139084D01*
X641354Y139125D01*
X641424Y139157D01*
X641473Y139199D01*
X641528Y139232D01*
X641580Y139290D01*
X641638Y139340D01*
X641674Y139394D01*
X641717Y139442D01*
X641750Y139511D01*
X641793Y139576D01*
X641812Y139638D01*
X641840Y139695D01*
X641851Y139765D01*
X641875Y139846D01*
X641876Y139931D01*
X641887Y140000D01*
X641887Y147841D01*
X642207Y148160D01*
X642264Y148237D01*
X642329Y148308D01*
X642349Y148349D01*
X642376Y148386D01*
X642410Y148476D01*
X642452Y148562D01*
X642458Y148604D01*
X642475Y148650D01*
X642485Y148777D01*
X642499Y148867D01*
X642499Y175198D01*
X642486Y175293D01*
X642481Y175389D01*
X642466Y175432D01*
X642459Y175477D01*
X642420Y175565D01*
X642388Y175656D01*
X642363Y175690D01*
X642343Y175734D01*
X642260Y175832D01*
X642207Y175905D01*
X640224Y177887D01*
X640224Y196373D01*
X641982Y198131D01*
X662498Y198131D01*
X664256Y196373D01*
X664256Y177887D01*
X662498Y176129D01*
X658500Y176129D01*
X658436Y176120D01*
X658372Y176121D01*
X658297Y176100D01*
X658221Y176089D01*
X658162Y176063D01*
X658100Y176046D01*
X658034Y176005D01*
X657964Y175973D01*
X657915Y175931D01*
X657860Y175898D01*
X657808Y175840D01*
X657750Y175790D01*
X657714Y175736D01*
X657671Y175688D01*
X657638Y175619D01*
X657595Y175554D01*
X657576Y175492D01*
X657548Y175435D01*
X657537Y175365D01*
X657513Y175284D01*
X657512Y175199D01*
X657501Y175130D01*
X657501Y150598D01*
X657510Y150534D01*
X657509Y150470D01*
X657530Y150395D01*
X657541Y150319D01*
X657567Y150260D01*
X657584Y150198D01*
X657625Y150132D01*
X657657Y150062D01*
X657699Y150013D01*
X657732Y149958D01*
X657790Y149906D01*
X657840Y149848D01*
X657894Y149812D01*
X657942Y149769D01*
X658011Y149736D01*
X658076Y149693D01*
X658138Y149674D01*
X658195Y149646D01*
X658265Y149635D01*
X658346Y149611D01*
X658431Y149610D01*
X658500Y149599D01*
X661131Y149599D01*
X662889Y147841D01*
X662889Y140000D01*
X662898Y139936D01*
X662897Y139872D01*
X662918Y139797D01*
X662929Y139721D01*
X662955Y139662D01*
X662972Y139600D01*
X663013Y139534D01*
X663045Y139464D01*
X663087Y139415D01*
X663120Y139360D01*
X663178Y139308D01*
X663228Y139250D01*
X663282Y139214D01*
X663330Y139171D01*
X663399Y139138D01*
X663464Y139095D01*
X663526Y139076D01*
X663583Y139048D01*
X663653Y139037D01*
X663734Y139013D01*
X663819Y139012D01*
X663888Y139001D01*
X680000Y139001D01*
X680064Y139010D01*
X680128Y139009D01*
X680203Y139030D01*
X680279Y139041D01*
X680338Y139067D01*
X680400Y139084D01*
X680466Y139125D01*
X680536Y139157D01*
X680585Y139199D01*
X680640Y139232D01*
X680692Y139290D01*
X680750Y139340D01*
X680786Y139394D01*
X680829Y139442D01*
X680862Y139511D01*
X680905Y139576D01*
X680924Y139638D01*
X680952Y139695D01*
X680963Y139765D01*
X680987Y139846D01*
X680988Y139931D01*
X680999Y140000D01*
X680999Y314001D01*
X835000Y314001D01*
X835064Y314010D01*
X835128Y314009D01*
X835203Y314030D01*
X835279Y314041D01*
X835338Y314067D01*
X835400Y314084D01*
X835466Y314125D01*
X835536Y314157D01*
X835585Y314199D01*
X835640Y314232D01*
X835692Y314290D01*
X835750Y314340D01*
X835786Y314394D01*
X835829Y314442D01*
X835862Y314511D01*
X835905Y314576D01*
X835924Y314638D01*
X835952Y314695D01*
X835963Y314765D01*
X835987Y314846D01*
X835988Y314931D01*
X835999Y315000D01*
X835999Y375000D01*
X835990Y375064D01*
X835991Y375128D01*
X835970Y375203D01*
X835959Y375279D01*
X835933Y375338D01*
X835916Y375400D01*
X835875Y375466D01*
X835843Y375536D01*
X835801Y375585D01*
X835768Y375640D01*
X835710Y375692D01*
X835660Y375750D01*
X835606Y375786D01*
X835558Y375829D01*
X835489Y375862D01*
X835424Y375905D01*
X835362Y375924D01*
X835305Y375952D01*
X835235Y375963D01*
X835154Y375987D01*
X835069Y375988D01*
X835000Y375999D01*
X816363Y375999D01*
X816299Y375990D01*
X816235Y375991D01*
X816160Y375970D01*
X816084Y375959D01*
X816025Y375933D01*
X815963Y375916D01*
X815897Y375875D01*
X815827Y375843D01*
X815778Y375801D01*
X815723Y375768D01*
X815671Y375710D01*
X815613Y375660D01*
X815577Y375606D01*
X815534Y375558D01*
X815501Y375489D01*
X815458Y375424D01*
X815439Y375362D01*
X815411Y375305D01*
X815400Y375235D01*
X815376Y375154D01*
X815375Y375069D01*
X815364Y375000D01*
X815364Y371577D01*
X813606Y369819D01*
X793090Y369819D01*
X791332Y371577D01*
X791332Y375000D01*
X791323Y375064D01*
X791324Y375128D01*
X791303Y375203D01*
X791292Y375279D01*
X791266Y375338D01*
X791249Y375400D01*
X791208Y375466D01*
X791176Y375536D01*
X791134Y375585D01*
X791101Y375640D01*
X791043Y375692D01*
X790993Y375750D01*
X790939Y375786D01*
X790891Y375829D01*
X790822Y375862D01*
X790757Y375905D01*
X790695Y375924D01*
X790638Y375952D01*
X790568Y375963D01*
X790487Y375987D01*
X790402Y375988D01*
X790333Y375999D01*
X680000Y375999D01*
X679936Y375990D01*
X679872Y375991D01*
X679797Y375970D01*
X679721Y375959D01*
X679662Y375933D01*
X679600Y375916D01*
X679534Y375875D01*
X679464Y375843D01*
X679415Y375801D01*
X679360Y375768D01*
X679308Y375710D01*
X679250Y375660D01*
X679214Y375606D01*
X679171Y375558D01*
X679138Y375489D01*
X679095Y375424D01*
X679076Y375362D01*
X679048Y375305D01*
X679037Y375235D01*
X679013Y375154D01*
X679012Y375069D01*
X679001Y375000D01*
X679001Y340999D01*
X565000Y340999D01*
X564936Y340990D01*
X564872Y340991D01*
X564797Y340970D01*
X564721Y340959D01*
X564662Y340933D01*
X564600Y340916D01*
X564534Y340875D01*
X564464Y340843D01*
X564415Y340801D01*
X564360Y340768D01*
X564308Y340710D01*
X564250Y340660D01*
X564214Y340606D01*
X564171Y340558D01*
X564138Y340489D01*
X564095Y340424D01*
X564076Y340362D01*
X564048Y340305D01*
X564037Y340235D01*
X564013Y340154D01*
X564012Y340069D01*
X564001Y340000D01*
X564001Y286479D01*
X564007Y286436D01*
X564004Y286393D01*
X564027Y286297D01*
X564041Y286200D01*
X564058Y286161D01*
X564068Y286119D01*
X564116Y286033D01*
X564157Y285943D01*
X564185Y285910D01*
X564206Y285873D01*
X564276Y285803D01*
X564340Y285729D01*
X564376Y285705D01*
X564407Y285675D01*
X564494Y285628D01*
X564576Y285574D01*
X564617Y285562D01*
X564655Y285541D01*
X564752Y285520D01*
X564846Y285492D01*
X564889Y285491D01*
X564931Y285482D01*
X565030Y285489D01*
X565128Y285488D01*
X565169Y285499D01*
X565212Y285503D01*
X565292Y285533D01*
X565400Y285563D01*
X566069Y285743D01*
X576405Y285743D01*
X576405Y272202D01*
X576414Y272138D01*
X576413Y272074D01*
X576434Y272000D01*
X576445Y271923D01*
X576471Y271864D01*
X576488Y271802D01*
X576529Y271736D01*
X576561Y271666D01*
X576603Y271617D01*
X576636Y271562D01*
X576694Y271511D01*
X576744Y271452D01*
X576798Y271416D01*
X576846Y271373D01*
X576915Y271340D01*
X576980Y271297D01*
X577042Y271278D01*
X577099Y271250D01*
X577169Y271240D01*
X577250Y271215D01*
X577335Y271214D01*
X577404Y271203D01*
X578405Y271203D01*
X578405Y271201D01*
X577404Y271201D01*
X577340Y271192D01*
X577276Y271193D01*
X577201Y271172D01*
X577125Y271161D01*
X577066Y271135D01*
X577004Y271118D01*
X576938Y271077D01*
X576868Y271045D01*
X576819Y271003D01*
X576764Y270970D01*
X576712Y270912D01*
X576654Y270862D01*
X576618Y270808D01*
X576575Y270760D01*
X576542Y270691D01*
X576499Y270626D01*
X576480Y270564D01*
X576452Y270506D01*
X576442Y270437D01*
X576417Y270356D01*
X576416Y270271D01*
X576405Y270202D01*
X576405Y256661D01*
X566069Y256661D01*
X565344Y256856D01*
X565325Y256865D01*
X565308Y256867D01*
X565238Y256895D01*
X565195Y256900D01*
X565154Y256912D01*
X565056Y256914D01*
X564958Y256923D01*
X564915Y256915D01*
X564872Y256916D01*
X564777Y256890D01*
X564680Y256872D01*
X564642Y256852D01*
X564600Y256841D01*
X564516Y256789D01*
X564429Y256745D01*
X564397Y256715D01*
X564360Y256693D01*
X564294Y256620D01*
X564222Y256552D01*
X564200Y256515D01*
X564171Y256483D01*
X564128Y256395D01*
X564078Y256310D01*
X564067Y256268D01*
X564048Y256230D01*
X564035Y256145D01*
X564027Y256114D01*
X564013Y256067D01*
X564013Y256058D01*
X564007Y256037D01*
X564009Y255977D01*
X564001Y255925D01*
X564001Y235999D01*
X515000Y235999D01*
X514936Y235990D01*
X514872Y235991D01*
X514797Y235970D01*
X514721Y235959D01*
X514662Y235933D01*
X514600Y235916D01*
X514534Y235875D01*
X514464Y235843D01*
X514415Y235801D01*
X514360Y235768D01*
X514308Y235710D01*
X514250Y235660D01*
X514214Y235606D01*
X514171Y235558D01*
X514138Y235489D01*
X514095Y235424D01*
X514076Y235362D01*
X514048Y235305D01*
X514037Y235235D01*
X514013Y235154D01*
X514012Y235069D01*
X514001Y235000D01*
X514001Y170000D01*
X514010Y169936D01*
X514009Y169872D01*
X514030Y169797D01*
X514041Y169721D01*
X514067Y169662D01*
X514084Y169600D01*
X514125Y169534D01*
X514157Y169464D01*
X514199Y169415D01*
X514232Y169360D01*
X514290Y169308D01*
X514340Y169250D01*
X514394Y169214D01*
X514442Y169171D01*
X514511Y169138D01*
X514576Y169095D01*
X514638Y169076D01*
X514695Y169048D01*
X514765Y169037D01*
X514846Y169013D01*
X514931Y169012D01*
X515000Y169001D01*
X619001Y169001D01*
X619001Y140000D01*
X619010Y139936D01*
X619009Y139872D01*
X619030Y139797D01*
X619041Y139721D01*
X619067Y139662D01*
X619084Y139600D01*
X619125Y139534D01*
X619157Y139464D01*
X619199Y139415D01*
X619232Y139360D01*
X619290Y139308D01*
X619340Y139250D01*
X619394Y139214D01*
X619442Y139171D01*
X619511Y139138D01*
X619576Y139095D01*
X619638Y139076D01*
X619695Y139048D01*
X619765Y139037D01*
X619846Y139013D01*
X619931Y139012D01*
X620000Y139001D01*
X640888Y139001D01*
X640952Y139010D01*
G37*
G36*
X235020Y69242D02*
X235020Y69242D01*
X235039Y69240D01*
X235141Y69262D01*
X235243Y69279D01*
X235260Y69288D01*
X235280Y69292D01*
X235369Y69345D01*
X235460Y69394D01*
X235474Y69408D01*
X235491Y69418D01*
X235558Y69497D01*
X235630Y69572D01*
X235638Y69590D01*
X235651Y69605D01*
X235690Y69701D01*
X235733Y69795D01*
X235735Y69815D01*
X235743Y69833D01*
X235761Y70000D01*
X235761Y77375D01*
X235758Y77395D01*
X235760Y77414D01*
X235738Y77516D01*
X235722Y77618D01*
X235712Y77635D01*
X235708Y77655D01*
X235655Y77744D01*
X235606Y77835D01*
X235592Y77849D01*
X235582Y77866D01*
X235503Y77933D01*
X235428Y78005D01*
X235410Y78013D01*
X235395Y78026D01*
X235299Y78065D01*
X235205Y78108D01*
X235185Y78110D01*
X235167Y78118D01*
X235000Y78136D01*
X233589Y78136D01*
X233589Y90710D01*
X233586Y90730D01*
X233588Y90749D01*
X233566Y90851D01*
X233549Y90953D01*
X233540Y90970D01*
X233536Y90990D01*
X233483Y91079D01*
X233434Y91170D01*
X233420Y91184D01*
X233410Y91201D01*
X233331Y91268D01*
X233256Y91339D01*
X233238Y91348D01*
X233223Y91361D01*
X233127Y91400D01*
X233033Y91443D01*
X233013Y91445D01*
X232995Y91453D01*
X232828Y91471D01*
X232065Y91471D01*
X232065Y91473D01*
X232828Y91473D01*
X232848Y91476D01*
X232867Y91474D01*
X232969Y91496D01*
X233071Y91513D01*
X233088Y91522D01*
X233108Y91526D01*
X233197Y91579D01*
X233288Y91628D01*
X233302Y91642D01*
X233319Y91652D01*
X233386Y91731D01*
X233457Y91806D01*
X233466Y91824D01*
X233479Y91839D01*
X233518Y91935D01*
X233561Y92029D01*
X233563Y92049D01*
X233571Y92067D01*
X233589Y92234D01*
X233589Y104808D01*
X235000Y104808D01*
X235020Y104811D01*
X235039Y104809D01*
X235141Y104831D01*
X235243Y104847D01*
X235260Y104857D01*
X235280Y104861D01*
X235369Y104914D01*
X235460Y104963D01*
X235474Y104977D01*
X235491Y104987D01*
X235558Y105066D01*
X235630Y105141D01*
X235638Y105159D01*
X235651Y105174D01*
X235690Y105270D01*
X235733Y105364D01*
X235735Y105384D01*
X235743Y105402D01*
X235761Y105569D01*
X235761Y115000D01*
X235758Y115020D01*
X235760Y115039D01*
X235738Y115141D01*
X235722Y115243D01*
X235712Y115260D01*
X235708Y115280D01*
X235655Y115369D01*
X235606Y115460D01*
X235592Y115474D01*
X235582Y115491D01*
X235503Y115558D01*
X235428Y115630D01*
X235410Y115638D01*
X235395Y115651D01*
X235299Y115690D01*
X235205Y115733D01*
X235185Y115735D01*
X235167Y115743D01*
X235000Y115761D01*
X205761Y115761D01*
X205761Y379239D01*
X314239Y379239D01*
X314239Y305000D01*
X314242Y304980D01*
X314240Y304961D01*
X314262Y304859D01*
X314279Y304757D01*
X314288Y304740D01*
X314292Y304720D01*
X314345Y304631D01*
X314394Y304540D01*
X314408Y304526D01*
X314418Y304509D01*
X314497Y304442D01*
X314572Y304371D01*
X314590Y304362D01*
X314605Y304349D01*
X314701Y304310D01*
X314795Y304267D01*
X314815Y304265D01*
X314833Y304257D01*
X315000Y304239D01*
X380000Y304239D01*
X380020Y304242D01*
X380039Y304240D01*
X380141Y304262D01*
X380243Y304279D01*
X380260Y304288D01*
X380280Y304292D01*
X380369Y304345D01*
X380460Y304394D01*
X380474Y304408D01*
X380491Y304418D01*
X380558Y304497D01*
X380630Y304572D01*
X380638Y304590D01*
X380651Y304605D01*
X380690Y304701D01*
X380733Y304795D01*
X380735Y304815D01*
X380743Y304833D01*
X380761Y305000D01*
X380761Y311091D01*
X380758Y311111D01*
X380760Y311130D01*
X380738Y311232D01*
X380722Y311334D01*
X380712Y311351D01*
X380708Y311371D01*
X380655Y311460D01*
X380606Y311551D01*
X380592Y311565D01*
X380582Y311582D01*
X380503Y311649D01*
X380428Y311721D01*
X380410Y311729D01*
X380395Y311742D01*
X380299Y311781D01*
X380205Y311824D01*
X380185Y311826D01*
X380167Y311834D01*
X380000Y311852D01*
X377887Y311852D01*
X377887Y324426D01*
X377884Y324446D01*
X377886Y324465D01*
X377864Y324567D01*
X377847Y324669D01*
X377838Y324686D01*
X377834Y324706D01*
X377781Y324795D01*
X377732Y324886D01*
X377718Y324900D01*
X377708Y324917D01*
X377629Y324984D01*
X377554Y325055D01*
X377536Y325064D01*
X377521Y325077D01*
X377425Y325116D01*
X377331Y325159D01*
X377311Y325161D01*
X377293Y325169D01*
X377126Y325187D01*
X376363Y325187D01*
X376363Y325189D01*
X377126Y325189D01*
X377146Y325192D01*
X377165Y325190D01*
X377267Y325212D01*
X377369Y325229D01*
X377386Y325238D01*
X377406Y325242D01*
X377495Y325295D01*
X377586Y325344D01*
X377600Y325358D01*
X377617Y325368D01*
X377684Y325447D01*
X377755Y325522D01*
X377764Y325540D01*
X377777Y325555D01*
X377816Y325651D01*
X377859Y325745D01*
X377861Y325765D01*
X377869Y325783D01*
X377887Y325950D01*
X377887Y338524D01*
X380000Y338524D01*
X380020Y338527D01*
X380039Y338525D01*
X380141Y338547D01*
X380243Y338563D01*
X380260Y338573D01*
X380280Y338577D01*
X380369Y338630D01*
X380460Y338679D01*
X380474Y338693D01*
X380491Y338703D01*
X380558Y338782D01*
X380630Y338857D01*
X380638Y338875D01*
X380651Y338890D01*
X380690Y338986D01*
X380733Y339080D01*
X380735Y339100D01*
X380743Y339118D01*
X380761Y339285D01*
X380761Y345000D01*
X380758Y345020D01*
X380760Y345039D01*
X380738Y345141D01*
X380722Y345243D01*
X380712Y345260D01*
X380708Y345280D01*
X380655Y345369D01*
X380606Y345460D01*
X380592Y345474D01*
X380582Y345491D01*
X380503Y345558D01*
X380428Y345630D01*
X380410Y345638D01*
X380395Y345651D01*
X380299Y345690D01*
X380205Y345733D01*
X380185Y345735D01*
X380167Y345743D01*
X380000Y345761D01*
X345761Y345761D01*
X345761Y450000D01*
X345758Y450020D01*
X345760Y450039D01*
X345738Y450141D01*
X345722Y450243D01*
X345712Y450260D01*
X345708Y450280D01*
X345655Y450369D01*
X345606Y450460D01*
X345592Y450474D01*
X345582Y450491D01*
X345503Y450558D01*
X345428Y450630D01*
X345410Y450638D01*
X345395Y450651D01*
X345299Y450690D01*
X345205Y450733D01*
X345185Y450735D01*
X345167Y450743D01*
X345000Y450761D01*
X170000Y450761D01*
X169980Y450758D01*
X169961Y450760D01*
X169859Y450738D01*
X169757Y450722D01*
X169740Y450712D01*
X169720Y450708D01*
X169631Y450655D01*
X169540Y450606D01*
X169526Y450592D01*
X169509Y450582D01*
X169442Y450503D01*
X169371Y450428D01*
X169362Y450410D01*
X169349Y450395D01*
X169310Y450299D01*
X169267Y450205D01*
X169265Y450185D01*
X169257Y450167D01*
X169239Y450000D01*
X169239Y439945D01*
X169241Y439934D01*
X169240Y439928D01*
X169241Y439920D01*
X169240Y439906D01*
X169262Y439804D01*
X169279Y439702D01*
X169288Y439685D01*
X169292Y439665D01*
X169345Y439576D01*
X169394Y439485D01*
X169408Y439471D01*
X169418Y439454D01*
X169497Y439387D01*
X169572Y439315D01*
X169590Y439307D01*
X169605Y439294D01*
X169701Y439255D01*
X169795Y439212D01*
X169815Y439210D01*
X169833Y439202D01*
X170000Y439184D01*
X176147Y439184D01*
X176147Y428390D01*
X176150Y428370D01*
X176148Y428351D01*
X176170Y428249D01*
X176187Y428147D01*
X176196Y428130D01*
X176200Y428110D01*
X176253Y428021D01*
X176302Y427930D01*
X176316Y427916D01*
X176326Y427899D01*
X176405Y427832D01*
X176480Y427761D01*
X176498Y427752D01*
X176513Y427739D01*
X176609Y427700D01*
X176703Y427657D01*
X176723Y427655D01*
X176741Y427647D01*
X176908Y427629D01*
X177671Y427629D01*
X177671Y427627D01*
X176908Y427627D01*
X176888Y427624D01*
X176869Y427626D01*
X176767Y427604D01*
X176665Y427587D01*
X176648Y427578D01*
X176628Y427574D01*
X176539Y427521D01*
X176448Y427472D01*
X176434Y427458D01*
X176417Y427448D01*
X176350Y427369D01*
X176279Y427294D01*
X176270Y427276D01*
X176257Y427261D01*
X176218Y427165D01*
X176175Y427071D01*
X176173Y427051D01*
X176165Y427033D01*
X176147Y426866D01*
X176147Y416072D01*
X170000Y416072D01*
X169980Y416069D01*
X169961Y416071D01*
X169859Y416049D01*
X169757Y416033D01*
X169740Y416023D01*
X169720Y416019D01*
X169631Y415966D01*
X169540Y415917D01*
X169526Y415903D01*
X169509Y415893D01*
X169442Y415814D01*
X169371Y415739D01*
X169362Y415721D01*
X169349Y415706D01*
X169310Y415610D01*
X169267Y415516D01*
X169265Y415496D01*
X169257Y415478D01*
X169239Y415311D01*
X169239Y337459D01*
X120000Y337459D01*
X119980Y337456D01*
X119961Y337458D01*
X119859Y337436D01*
X119757Y337420D01*
X119740Y337410D01*
X119720Y337406D01*
X119631Y337353D01*
X119540Y337304D01*
X119526Y337290D01*
X119509Y337280D01*
X119442Y337201D01*
X119371Y337126D01*
X119362Y337108D01*
X119349Y337093D01*
X119310Y336997D01*
X119267Y336903D01*
X119265Y336883D01*
X119257Y336865D01*
X119239Y336698D01*
X119239Y320000D01*
X119242Y319980D01*
X119240Y319961D01*
X119262Y319859D01*
X119279Y319757D01*
X119288Y319740D01*
X119292Y319720D01*
X119345Y319631D01*
X119394Y319540D01*
X119408Y319526D01*
X119418Y319509D01*
X119497Y319442D01*
X119572Y319371D01*
X119590Y319362D01*
X119605Y319349D01*
X119701Y319310D01*
X119795Y319267D01*
X119815Y319265D01*
X119833Y319257D01*
X120000Y319239D01*
X122594Y319239D01*
X122614Y319242D01*
X122633Y319240D01*
X122735Y319262D01*
X122837Y319279D01*
X122854Y319288D01*
X122874Y319292D01*
X122963Y319345D01*
X123054Y319394D01*
X123068Y319408D01*
X123085Y319418D01*
X123152Y319497D01*
X123224Y319572D01*
X123232Y319590D01*
X123245Y319605D01*
X123284Y319701D01*
X123327Y319795D01*
X123329Y319815D01*
X123337Y319833D01*
X123355Y320000D01*
X123355Y323325D01*
X132634Y323325D01*
X132654Y323328D01*
X132673Y323326D01*
X132775Y323348D01*
X132877Y323365D01*
X132894Y323374D01*
X132914Y323378D01*
X133003Y323431D01*
X133094Y323480D01*
X133108Y323494D01*
X133125Y323504D01*
X133192Y323583D01*
X133263Y323658D01*
X133272Y323676D01*
X133285Y323691D01*
X133324Y323787D01*
X133367Y323881D01*
X133369Y323901D01*
X133377Y323919D01*
X133395Y324086D01*
X133395Y324849D01*
X133397Y324849D01*
X133397Y324086D01*
X133400Y324066D01*
X133398Y324047D01*
X133420Y323945D01*
X133437Y323843D01*
X133446Y323826D01*
X133450Y323806D01*
X133503Y323717D01*
X133552Y323626D01*
X133566Y323612D01*
X133576Y323595D01*
X133655Y323528D01*
X133730Y323457D01*
X133748Y323448D01*
X133763Y323435D01*
X133859Y323396D01*
X133953Y323353D01*
X133973Y323351D01*
X133991Y323343D01*
X134158Y323325D01*
X143437Y323325D01*
X143437Y320000D01*
X143440Y319980D01*
X143438Y319961D01*
X143460Y319859D01*
X143476Y319757D01*
X143486Y319740D01*
X143490Y319720D01*
X143543Y319631D01*
X143592Y319540D01*
X143606Y319526D01*
X143616Y319509D01*
X143695Y319442D01*
X143770Y319371D01*
X143788Y319362D01*
X143803Y319349D01*
X143899Y319310D01*
X143993Y319267D01*
X144013Y319265D01*
X144031Y319257D01*
X144198Y319239D01*
X160446Y319239D01*
X160466Y319242D01*
X160485Y319240D01*
X160587Y319262D01*
X160689Y319279D01*
X160706Y319288D01*
X160726Y319292D01*
X160815Y319345D01*
X160906Y319394D01*
X160920Y319408D01*
X160937Y319418D01*
X161004Y319497D01*
X161076Y319572D01*
X161084Y319590D01*
X161097Y319605D01*
X161136Y319701D01*
X161179Y319795D01*
X161181Y319815D01*
X161189Y319833D01*
X161207Y320000D01*
X161207Y323949D01*
X170486Y323949D01*
X170506Y323952D01*
X170525Y323950D01*
X170627Y323972D01*
X170729Y323989D01*
X170746Y323998D01*
X170766Y324002D01*
X170855Y324055D01*
X170946Y324104D01*
X170960Y324118D01*
X170977Y324128D01*
X171044Y324207D01*
X171115Y324282D01*
X171124Y324300D01*
X171137Y324315D01*
X171176Y324411D01*
X171219Y324505D01*
X171221Y324525D01*
X171229Y324543D01*
X171247Y324710D01*
X171247Y325473D01*
X171249Y325473D01*
X171249Y324710D01*
X171252Y324690D01*
X171250Y324671D01*
X171272Y324569D01*
X171289Y324467D01*
X171298Y324450D01*
X171302Y324430D01*
X171355Y324341D01*
X171404Y324250D01*
X171418Y324236D01*
X171428Y324219D01*
X171507Y324152D01*
X171582Y324081D01*
X171600Y324072D01*
X171615Y324059D01*
X171711Y324020D01*
X171805Y323977D01*
X171825Y323975D01*
X171843Y323967D01*
X172010Y323949D01*
X181289Y323949D01*
X181289Y320000D01*
X181292Y319980D01*
X181290Y319961D01*
X181312Y319859D01*
X181328Y319757D01*
X181338Y319740D01*
X181342Y319720D01*
X181395Y319631D01*
X181444Y319540D01*
X181458Y319526D01*
X181468Y319509D01*
X181547Y319442D01*
X181622Y319371D01*
X181640Y319362D01*
X181655Y319349D01*
X181751Y319310D01*
X181845Y319267D01*
X181865Y319265D01*
X181883Y319257D01*
X182050Y319239D01*
X184239Y319239D01*
X184239Y70000D01*
X184242Y69980D01*
X184240Y69961D01*
X184262Y69859D01*
X184279Y69757D01*
X184288Y69740D01*
X184292Y69720D01*
X184345Y69631D01*
X184394Y69540D01*
X184408Y69526D01*
X184418Y69509D01*
X184497Y69442D01*
X184572Y69371D01*
X184590Y69362D01*
X184605Y69349D01*
X184701Y69310D01*
X184795Y69267D01*
X184815Y69265D01*
X184833Y69257D01*
X185000Y69239D01*
X235000Y69239D01*
X235020Y69242D01*
G37*
G36*
X855064Y-990D02*
X855064Y-990D01*
X855128Y-991D01*
X855203Y-970D01*
X855279Y-959D01*
X855338Y-933D01*
X855400Y-916D01*
X855466Y-875D01*
X855536Y-843D01*
X855585Y-801D01*
X855640Y-768D01*
X855692Y-710D01*
X855750Y-660D01*
X855786Y-606D01*
X855829Y-558D01*
X855862Y-489D01*
X855905Y-424D01*
X855924Y-362D01*
X855952Y-305D01*
X855963Y-235D01*
X855987Y-154D01*
X855988Y-69D01*
X855999Y0D01*
X855999Y67979D01*
X855991Y68040D01*
X855991Y68077D01*
X855984Y68101D01*
X855981Y68170D01*
X855966Y68213D01*
X855959Y68258D01*
X855920Y68346D01*
X855888Y68437D01*
X855863Y68471D01*
X855843Y68515D01*
X855760Y68613D01*
X855707Y68686D01*
X844859Y79534D01*
X844833Y79553D01*
X844812Y79578D01*
X844720Y79638D01*
X844633Y79703D01*
X844603Y79714D01*
X844576Y79732D01*
X844471Y79764D01*
X844369Y79803D01*
X844337Y79805D01*
X844306Y79815D01*
X844197Y79816D01*
X844088Y79824D01*
X844056Y79818D01*
X844024Y79818D01*
X843919Y79789D01*
X843812Y79767D01*
X843783Y79752D01*
X843752Y79743D01*
X843659Y79686D01*
X843563Y79634D01*
X843540Y79612D01*
X843512Y79595D01*
X843439Y79514D01*
X843361Y79438D01*
X843345Y79410D01*
X843323Y79386D01*
X843276Y79287D01*
X843222Y79192D01*
X843214Y79161D01*
X843200Y79132D01*
X843186Y79043D01*
X843157Y78918D01*
X843159Y78869D01*
X843153Y78827D01*
X843153Y78731D01*
X841395Y76973D01*
X832305Y76973D01*
X830881Y78397D01*
X830830Y78436D01*
X830785Y78482D01*
X830718Y78520D01*
X830656Y78566D01*
X830596Y78589D01*
X830540Y78621D01*
X830464Y78639D01*
X830392Y78666D01*
X830328Y78671D01*
X830265Y78686D01*
X830188Y78682D01*
X830111Y78688D01*
X830048Y78675D01*
X829984Y78671D01*
X829911Y78646D01*
X829835Y78630D01*
X829778Y78600D01*
X829717Y78579D01*
X829660Y78537D01*
X829586Y78498D01*
X829525Y78438D01*
X829468Y78397D01*
X829012Y77941D01*
X828433Y77606D01*
X827787Y77433D01*
X825800Y77433D01*
X825800Y89483D01*
X825791Y89546D01*
X825792Y89611D01*
X825771Y89685D01*
X825760Y89762D01*
X825734Y89820D01*
X825717Y89882D01*
X825676Y89948D01*
X825644Y90019D01*
X825602Y90068D01*
X825569Y90122D01*
X825557Y90133D01*
X825587Y90179D01*
X825630Y90227D01*
X825663Y90296D01*
X825706Y90361D01*
X825725Y90423D01*
X825753Y90481D01*
X825764Y90550D01*
X825788Y90631D01*
X825789Y90716D01*
X825800Y90785D01*
X825800Y102835D01*
X827787Y102835D01*
X828433Y102662D01*
X829012Y102327D01*
X829468Y101871D01*
X829520Y101832D01*
X829564Y101786D01*
X829632Y101748D01*
X829694Y101702D01*
X829754Y101679D01*
X829810Y101647D01*
X829885Y101629D01*
X829958Y101602D01*
X830022Y101597D01*
X830084Y101582D01*
X830162Y101586D01*
X830239Y101580D01*
X830302Y101593D01*
X830366Y101597D01*
X830439Y101622D01*
X830515Y101638D01*
X830572Y101668D01*
X830632Y101689D01*
X830689Y101731D01*
X830764Y101770D01*
X830825Y101830D01*
X830881Y101871D01*
X832305Y103295D01*
X841395Y103295D01*
X842308Y102382D01*
X842312Y102378D01*
X842316Y102374D01*
X842426Y102293D01*
X842534Y102212D01*
X842539Y102210D01*
X842543Y102207D01*
X842599Y102188D01*
X842798Y102113D01*
X842817Y102111D01*
X842818Y102111D01*
X843426Y101718D01*
X843518Y101675D01*
X843586Y101633D01*
X844249Y101359D01*
X844668Y100940D01*
X844765Y100867D01*
X844831Y100808D01*
X845329Y100486D01*
X845736Y99895D01*
X845804Y99821D01*
X845852Y99756D01*
X854293Y91314D01*
X854319Y91295D01*
X854340Y91270D01*
X854432Y91210D01*
X854519Y91145D01*
X854549Y91134D01*
X854576Y91116D01*
X854681Y91084D01*
X854783Y91045D01*
X854815Y91043D01*
X854846Y91034D01*
X854955Y91032D01*
X855064Y91024D01*
X855096Y91030D01*
X855128Y91030D01*
X855233Y91059D01*
X855340Y91081D01*
X855369Y91096D01*
X855400Y91105D01*
X855493Y91163D01*
X855589Y91214D01*
X855612Y91236D01*
X855640Y91253D01*
X855713Y91334D01*
X855791Y91410D01*
X855807Y91438D01*
X855829Y91462D01*
X855876Y91561D01*
X855930Y91656D01*
X855938Y91687D01*
X855952Y91716D01*
X855966Y91805D01*
X855995Y91930D01*
X855993Y91979D01*
X855999Y92021D01*
X855999Y110000D01*
X855990Y110064D01*
X855991Y110128D01*
X855970Y110203D01*
X855959Y110279D01*
X855933Y110338D01*
X855916Y110400D01*
X855875Y110466D01*
X855843Y110536D01*
X855801Y110585D01*
X855768Y110640D01*
X855710Y110692D01*
X855660Y110750D01*
X855606Y110786D01*
X855558Y110829D01*
X855489Y110862D01*
X855424Y110905D01*
X855362Y110924D01*
X855305Y110952D01*
X855235Y110963D01*
X855154Y110987D01*
X855069Y110988D01*
X855000Y110999D01*
X690000Y110999D01*
X689936Y110990D01*
X689872Y110991D01*
X689797Y110970D01*
X689721Y110959D01*
X689662Y110933D01*
X689600Y110916D01*
X689534Y110875D01*
X689464Y110843D01*
X689415Y110801D01*
X689360Y110768D01*
X689308Y110710D01*
X689250Y110660D01*
X689214Y110606D01*
X689171Y110558D01*
X689138Y110489D01*
X689095Y110424D01*
X689076Y110362D01*
X689048Y110305D01*
X689037Y110235D01*
X689013Y110154D01*
X689012Y110069D01*
X689001Y110000D01*
X689001Y90999D01*
X678657Y90999D01*
X678625Y90995D01*
X678593Y90997D01*
X678486Y90975D01*
X678378Y90959D01*
X678348Y90946D01*
X678317Y90940D01*
X678220Y90888D01*
X678121Y90843D01*
X678096Y90822D01*
X678068Y90807D01*
X677989Y90731D01*
X677906Y90660D01*
X677889Y90633D01*
X677866Y90610D01*
X677812Y90515D01*
X677752Y90424D01*
X677742Y90393D01*
X677727Y90365D01*
X677701Y90258D01*
X677670Y90154D01*
X677669Y90122D01*
X677662Y90091D01*
X677667Y89981D01*
X677666Y89872D01*
X677674Y89841D01*
X677676Y89809D01*
X677712Y89706D01*
X677741Y89600D01*
X677758Y89573D01*
X677769Y89542D01*
X677822Y89469D01*
X677889Y89360D01*
X677925Y89328D01*
X677950Y89293D01*
X679001Y88243D01*
X679001Y31757D01*
X677243Y29999D01*
X612757Y29999D01*
X610999Y31757D01*
X610999Y56500D01*
X610990Y56564D01*
X610991Y56628D01*
X610970Y56703D01*
X610959Y56779D01*
X610933Y56838D01*
X610916Y56900D01*
X610875Y56966D01*
X610843Y57036D01*
X610801Y57085D01*
X610768Y57140D01*
X610710Y57192D01*
X610660Y57250D01*
X610606Y57286D01*
X610558Y57329D01*
X610489Y57362D01*
X610424Y57405D01*
X610362Y57424D01*
X610305Y57452D01*
X610235Y57463D01*
X610154Y57487D01*
X610069Y57488D01*
X610000Y57499D01*
X588521Y57499D01*
X588426Y57486D01*
X588330Y57481D01*
X588287Y57466D01*
X588242Y57459D01*
X588154Y57420D01*
X588063Y57388D01*
X588029Y57363D01*
X587985Y57343D01*
X587887Y57260D01*
X587814Y57207D01*
X579293Y48686D01*
X579236Y48609D01*
X579171Y48538D01*
X579151Y48497D01*
X579124Y48460D01*
X579099Y48394D01*
X579095Y48388D01*
X579089Y48367D01*
X579048Y48284D01*
X579042Y48242D01*
X579025Y48196D01*
X579021Y48144D01*
X579013Y48118D01*
X579012Y48050D01*
X579001Y47979D01*
X579001Y46712D01*
X577250Y42485D01*
X574015Y39250D01*
X569788Y37499D01*
X565212Y37499D01*
X560985Y39250D01*
X557750Y42485D01*
X555999Y46712D01*
X555999Y51288D01*
X557750Y55515D01*
X560985Y58750D01*
X565212Y60501D01*
X569479Y60501D01*
X569574Y60514D01*
X569670Y60519D01*
X569713Y60534D01*
X569758Y60541D01*
X569846Y60580D01*
X569937Y60612D01*
X569971Y60637D01*
X570015Y60657D01*
X570113Y60740D01*
X570186Y60793D01*
X580751Y71359D01*
X583508Y72501D01*
X610000Y72501D01*
X610064Y72510D01*
X610128Y72509D01*
X610203Y72530D01*
X610279Y72541D01*
X610338Y72567D01*
X610400Y72584D01*
X610466Y72625D01*
X610536Y72657D01*
X610585Y72699D01*
X610640Y72732D01*
X610692Y72790D01*
X610750Y72840D01*
X610786Y72894D01*
X610829Y72942D01*
X610862Y73011D01*
X610905Y73076D01*
X610924Y73138D01*
X610952Y73195D01*
X610963Y73265D01*
X610987Y73346D01*
X610988Y73431D01*
X610999Y73500D01*
X610999Y88243D01*
X612050Y89293D01*
X612069Y89319D01*
X612094Y89340D01*
X612154Y89432D01*
X612219Y89519D01*
X612230Y89549D01*
X612248Y89576D01*
X612280Y89681D01*
X612319Y89783D01*
X612321Y89815D01*
X612330Y89846D01*
X612332Y89955D01*
X612340Y90064D01*
X612334Y90096D01*
X612334Y90128D01*
X612305Y90233D01*
X612283Y90340D01*
X612268Y90369D01*
X612259Y90400D01*
X612202Y90493D01*
X612150Y90589D01*
X612128Y90612D01*
X612111Y90640D01*
X612030Y90713D01*
X611954Y90791D01*
X611925Y90807D01*
X611902Y90829D01*
X611803Y90876D01*
X611708Y90930D01*
X611677Y90938D01*
X611648Y90952D01*
X611559Y90966D01*
X611434Y90995D01*
X611385Y90993D01*
X611343Y90999D01*
X420000Y90999D01*
X419936Y90990D01*
X419872Y90991D01*
X419797Y90970D01*
X419721Y90959D01*
X419662Y90933D01*
X419600Y90916D01*
X419534Y90875D01*
X419464Y90843D01*
X419415Y90801D01*
X419360Y90768D01*
X419308Y90710D01*
X419250Y90660D01*
X419214Y90606D01*
X419171Y90558D01*
X419138Y90489D01*
X419095Y90424D01*
X419076Y90362D01*
X419048Y90305D01*
X419037Y90235D01*
X419013Y90154D01*
X419012Y90069D01*
X419001Y90000D01*
X419001Y72170D01*
X419010Y72106D01*
X419009Y72042D01*
X419030Y71967D01*
X419041Y71891D01*
X419067Y71832D01*
X419084Y71770D01*
X419125Y71704D01*
X419157Y71634D01*
X419199Y71585D01*
X419232Y71530D01*
X419290Y71478D01*
X419340Y71420D01*
X419394Y71384D01*
X419442Y71341D01*
X419511Y71308D01*
X419576Y71265D01*
X419638Y71246D01*
X419695Y71218D01*
X419765Y71207D01*
X419846Y71183D01*
X419931Y71182D01*
X420000Y71171D01*
X430341Y71171D01*
X430341Y57630D01*
X430350Y57566D01*
X430349Y57502D01*
X430370Y57428D01*
X430381Y57351D01*
X430407Y57292D01*
X430424Y57230D01*
X430465Y57164D01*
X430497Y57094D01*
X430539Y57045D01*
X430572Y56990D01*
X430630Y56939D01*
X430680Y56880D01*
X430734Y56844D01*
X430782Y56801D01*
X430851Y56768D01*
X430916Y56725D01*
X430978Y56706D01*
X431035Y56678D01*
X431105Y56668D01*
X431186Y56643D01*
X431271Y56642D01*
X431340Y56631D01*
X432341Y56631D01*
X432341Y56629D01*
X431340Y56629D01*
X431276Y56620D01*
X431212Y56621D01*
X431137Y56600D01*
X431061Y56589D01*
X431002Y56563D01*
X430940Y56546D01*
X430874Y56505D01*
X430804Y56473D01*
X430755Y56431D01*
X430700Y56398D01*
X430648Y56340D01*
X430590Y56290D01*
X430554Y56236D01*
X430511Y56188D01*
X430478Y56119D01*
X430435Y56054D01*
X430416Y55992D01*
X430388Y55934D01*
X430378Y55865D01*
X430353Y55784D01*
X430352Y55699D01*
X430341Y55630D01*
X430341Y42089D01*
X420000Y42089D01*
X419936Y42080D01*
X419872Y42081D01*
X419797Y42060D01*
X419721Y42049D01*
X419662Y42023D01*
X419600Y42006D01*
X419534Y41965D01*
X419464Y41933D01*
X419415Y41891D01*
X419360Y41858D01*
X419308Y41800D01*
X419250Y41750D01*
X419214Y41696D01*
X419171Y41648D01*
X419138Y41579D01*
X419095Y41514D01*
X419076Y41452D01*
X419048Y41395D01*
X419037Y41325D01*
X419013Y41244D01*
X419012Y41159D01*
X419001Y41090D01*
X419001Y22444D01*
X419010Y22380D01*
X419009Y22316D01*
X419030Y22241D01*
X419041Y22165D01*
X419067Y22106D01*
X419084Y22044D01*
X419125Y21978D01*
X419157Y21908D01*
X419199Y21859D01*
X419232Y21804D01*
X419290Y21752D01*
X419340Y21694D01*
X419394Y21658D01*
X419442Y21615D01*
X419511Y21582D01*
X419576Y21539D01*
X419638Y21520D01*
X419695Y21492D01*
X419765Y21481D01*
X419846Y21457D01*
X419931Y21456D01*
X420000Y21445D01*
X506888Y21445D01*
X506983Y21458D01*
X507079Y21463D01*
X507122Y21478D01*
X507167Y21485D01*
X507254Y21524D01*
X507345Y21556D01*
X507380Y21581D01*
X507424Y21601D01*
X507521Y21684D01*
X507594Y21737D01*
X522207Y36350D01*
X522264Y36427D01*
X522329Y36498D01*
X522349Y36539D01*
X522376Y36575D01*
X522410Y36665D01*
X522452Y36752D01*
X522458Y36794D01*
X522475Y36839D01*
X522485Y36967D01*
X522499Y37056D01*
X522499Y42892D01*
X522493Y42933D01*
X522496Y42975D01*
X522476Y43059D01*
X522459Y43171D01*
X522435Y43225D01*
X522423Y43275D01*
X520999Y46712D01*
X520999Y51288D01*
X522750Y55515D01*
X525985Y58750D01*
X530212Y60501D01*
X534788Y60501D01*
X539015Y58750D01*
X542250Y55515D01*
X544001Y51288D01*
X544001Y46712D01*
X542577Y43275D01*
X542566Y43234D01*
X542548Y43197D01*
X542535Y43112D01*
X542507Y43001D01*
X542509Y42943D01*
X542501Y42892D01*
X542501Y30511D01*
X540978Y26835D01*
X540582Y26439D01*
X540543Y26387D01*
X540497Y26343D01*
X540459Y26275D01*
X540413Y26213D01*
X540390Y26153D01*
X540358Y26097D01*
X540340Y26022D01*
X540313Y25949D01*
X540308Y25885D01*
X540293Y25823D01*
X540297Y25745D01*
X540291Y25668D01*
X540304Y25605D01*
X540308Y25541D01*
X540333Y25468D01*
X540349Y25392D01*
X540379Y25335D01*
X540400Y25275D01*
X540442Y25218D01*
X540481Y25143D01*
X540541Y25082D01*
X540582Y25026D01*
X542814Y22793D01*
X542891Y22736D01*
X542962Y22671D01*
X543003Y22651D01*
X543040Y22624D01*
X543130Y22590D01*
X543216Y22548D01*
X543258Y22542D01*
X543304Y22525D01*
X543431Y22515D01*
X543521Y22501D01*
X781492Y22501D01*
X784249Y21359D01*
X792814Y12793D01*
X792891Y12736D01*
X792962Y12671D01*
X793003Y12651D01*
X793040Y12624D01*
X793130Y12590D01*
X793216Y12548D01*
X793258Y12542D01*
X793304Y12525D01*
X793431Y12515D01*
X793521Y12501D01*
X831479Y12501D01*
X831574Y12514D01*
X831670Y12519D01*
X831713Y12534D01*
X831758Y12541D01*
X831846Y12580D01*
X831937Y12612D01*
X831971Y12637D01*
X832015Y12657D01*
X832098Y12727D01*
X832140Y12753D01*
X832157Y12773D01*
X832186Y12793D01*
X832207Y12814D01*
X832220Y12832D01*
X832230Y12840D01*
X832254Y12878D01*
X832264Y12891D01*
X832329Y12962D01*
X832349Y13003D01*
X832376Y13040D01*
X832410Y13130D01*
X832452Y13216D01*
X832458Y13258D01*
X832475Y13304D01*
X832485Y13431D01*
X832499Y13521D01*
X832499Y14897D01*
X832486Y14992D01*
X832481Y15088D01*
X832466Y15131D01*
X832459Y15176D01*
X832420Y15264D01*
X832388Y15355D01*
X832363Y15389D01*
X832343Y15433D01*
X832260Y15531D01*
X832207Y15604D01*
X831207Y16604D01*
X831155Y16642D01*
X831110Y16688D01*
X831043Y16727D01*
X830981Y16773D01*
X830921Y16796D01*
X830865Y16827D01*
X830790Y16845D01*
X830717Y16873D01*
X830653Y16878D01*
X830590Y16892D01*
X830513Y16888D01*
X830436Y16894D01*
X830373Y16881D01*
X830309Y16878D01*
X830236Y16853D01*
X830160Y16837D01*
X830103Y16807D01*
X830042Y16785D01*
X829986Y16744D01*
X829911Y16704D01*
X829850Y16645D01*
X829793Y16604D01*
X828695Y15505D01*
X819605Y15505D01*
X818507Y16604D01*
X818455Y16642D01*
X818410Y16688D01*
X818343Y16727D01*
X818281Y16773D01*
X818221Y16796D01*
X818165Y16827D01*
X818090Y16845D01*
X818017Y16873D01*
X817953Y16878D01*
X817891Y16892D01*
X817813Y16888D01*
X817736Y16894D01*
X817673Y16881D01*
X817609Y16878D01*
X817536Y16853D01*
X817460Y16837D01*
X817403Y16807D01*
X817342Y16785D01*
X817286Y16744D01*
X817211Y16704D01*
X817150Y16645D01*
X817093Y16604D01*
X815995Y15505D01*
X806905Y15505D01*
X805807Y16604D01*
X805755Y16642D01*
X805710Y16688D01*
X805643Y16727D01*
X805581Y16773D01*
X805521Y16796D01*
X805465Y16827D01*
X805390Y16845D01*
X805317Y16873D01*
X805253Y16878D01*
X805191Y16892D01*
X805113Y16888D01*
X805036Y16894D01*
X804973Y16881D01*
X804909Y16878D01*
X804836Y16853D01*
X804760Y16837D01*
X804703Y16807D01*
X804642Y16785D01*
X804586Y16744D01*
X804511Y16704D01*
X804450Y16645D01*
X804393Y16604D01*
X803295Y15505D01*
X794205Y15505D01*
X792447Y17263D01*
X792447Y40069D01*
X794205Y41827D01*
X803295Y41827D01*
X804393Y40728D01*
X804445Y40690D01*
X804490Y40644D01*
X804557Y40605D01*
X804619Y40559D01*
X804679Y40536D01*
X804735Y40505D01*
X804810Y40487D01*
X804883Y40459D01*
X804947Y40454D01*
X805010Y40440D01*
X805087Y40444D01*
X805164Y40438D01*
X805227Y40451D01*
X805291Y40454D01*
X805364Y40479D01*
X805440Y40495D01*
X805497Y40525D01*
X805558Y40547D01*
X805614Y40588D01*
X805689Y40628D01*
X805750Y40687D01*
X805807Y40728D01*
X806905Y41827D01*
X811700Y41827D01*
X811817Y41843D01*
X811936Y41855D01*
X811957Y41863D01*
X811979Y41867D01*
X812087Y41915D01*
X812198Y41959D01*
X812216Y41973D01*
X812236Y41983D01*
X812326Y42060D01*
X812420Y42133D01*
X812433Y42151D01*
X812451Y42166D01*
X812516Y42265D01*
X812585Y42362D01*
X812593Y42383D01*
X812605Y42402D01*
X812640Y42515D01*
X812679Y42627D01*
X812681Y42650D01*
X812687Y42672D01*
X812689Y42790D01*
X812696Y42909D01*
X812691Y42930D01*
X812691Y42954D01*
X812642Y43133D01*
X812623Y43208D01*
X812499Y43508D01*
X812499Y46500D01*
X812490Y46564D01*
X812491Y46628D01*
X812470Y46703D01*
X812459Y46779D01*
X812433Y46838D01*
X812416Y46900D01*
X812375Y46966D01*
X812343Y47036D01*
X812301Y47085D01*
X812268Y47140D01*
X812210Y47192D01*
X812160Y47250D01*
X812106Y47286D01*
X812058Y47329D01*
X811989Y47362D01*
X811924Y47405D01*
X811862Y47424D01*
X811805Y47452D01*
X811735Y47463D01*
X811654Y47487D01*
X811569Y47488D01*
X811500Y47499D01*
X788521Y47499D01*
X788426Y47486D01*
X788330Y47481D01*
X788287Y47466D01*
X788242Y47459D01*
X788154Y47420D01*
X788063Y47388D01*
X788029Y47363D01*
X787985Y47343D01*
X787887Y47260D01*
X787814Y47207D01*
X779249Y38641D01*
X776492Y37499D01*
X768715Y37499D01*
X768651Y37490D01*
X768587Y37491D01*
X768512Y37470D01*
X768436Y37459D01*
X768377Y37433D01*
X768315Y37416D01*
X768249Y37375D01*
X768179Y37343D01*
X768130Y37301D01*
X768075Y37268D01*
X768023Y37210D01*
X767965Y37160D01*
X767929Y37106D01*
X767886Y37058D01*
X767853Y36989D01*
X767810Y36924D01*
X767791Y36862D01*
X767763Y36805D01*
X767752Y36735D01*
X767728Y36654D01*
X767727Y36569D01*
X767716Y36500D01*
X767716Y36437D01*
X765958Y34679D01*
X745442Y34679D01*
X743684Y36437D01*
X743684Y36500D01*
X743675Y36564D01*
X743676Y36628D01*
X743655Y36703D01*
X743644Y36779D01*
X743618Y36838D01*
X743601Y36900D01*
X743560Y36966D01*
X743528Y37036D01*
X743486Y37085D01*
X743453Y37140D01*
X743395Y37192D01*
X743345Y37250D01*
X743291Y37286D01*
X743243Y37329D01*
X743174Y37362D01*
X743109Y37405D01*
X743047Y37424D01*
X742990Y37452D01*
X742920Y37463D01*
X742839Y37487D01*
X742754Y37488D01*
X742685Y37499D01*
X738508Y37499D01*
X735751Y38641D01*
X733501Y40892D01*
X730707Y43686D01*
X730681Y43705D01*
X730660Y43730D01*
X730602Y43768D01*
X730570Y43796D01*
X730540Y43811D01*
X730481Y43855D01*
X730451Y43866D01*
X730424Y43884D01*
X730329Y43913D01*
X730316Y43919D01*
X730306Y43921D01*
X730217Y43955D01*
X730185Y43957D01*
X730154Y43967D01*
X730045Y43968D01*
X729936Y43976D01*
X729904Y43970D01*
X729872Y43970D01*
X729767Y43941D01*
X729660Y43919D01*
X729631Y43904D01*
X729600Y43895D01*
X729507Y43838D01*
X729411Y43786D01*
X729388Y43764D01*
X729360Y43747D01*
X729287Y43666D01*
X729209Y43590D01*
X729193Y43562D01*
X729171Y43538D01*
X729124Y43439D01*
X729107Y43409D01*
X729095Y43392D01*
X729093Y43386D01*
X729070Y43344D01*
X729062Y43313D01*
X729048Y43284D01*
X729034Y43195D01*
X729033Y43187D01*
X729013Y43122D01*
X729012Y43102D01*
X729005Y43070D01*
X729007Y43021D01*
X729001Y42979D01*
X729001Y30957D01*
X727243Y29199D01*
X708757Y29199D01*
X706999Y30957D01*
X706999Y43443D01*
X707207Y43650D01*
X707264Y43727D01*
X707329Y43798D01*
X707349Y43839D01*
X707376Y43876D01*
X707410Y43966D01*
X707452Y44052D01*
X707458Y44094D01*
X707475Y44140D01*
X707485Y44267D01*
X707499Y44357D01*
X707499Y51492D01*
X708641Y54249D01*
X715751Y61359D01*
X718508Y62501D01*
X731492Y62501D01*
X734249Y61359D01*
X741978Y53629D01*
X742004Y53610D01*
X742025Y53585D01*
X742117Y53525D01*
X742204Y53460D01*
X742234Y53449D01*
X742261Y53431D01*
X742366Y53399D01*
X742468Y53360D01*
X742500Y53358D01*
X742531Y53348D01*
X742640Y53347D01*
X742749Y53339D01*
X742781Y53345D01*
X742813Y53345D01*
X742918Y53374D01*
X743025Y53396D01*
X743054Y53411D01*
X743085Y53420D01*
X743178Y53477D01*
X743274Y53529D01*
X743297Y53551D01*
X743325Y53568D01*
X743398Y53649D01*
X743476Y53725D01*
X743492Y53753D01*
X743514Y53777D01*
X743561Y53876D01*
X743615Y53971D01*
X743623Y54002D01*
X743637Y54031D01*
X743651Y54120D01*
X743680Y54245D01*
X743678Y54294D01*
X743684Y54336D01*
X743684Y54923D01*
X745442Y56681D01*
X765958Y56681D01*
X767716Y54923D01*
X767716Y53500D01*
X767725Y53436D01*
X767724Y53372D01*
X767745Y53297D01*
X767756Y53221D01*
X767782Y53162D01*
X767799Y53100D01*
X767840Y53034D01*
X767872Y52964D01*
X767914Y52915D01*
X767947Y52860D01*
X768005Y52808D01*
X768055Y52750D01*
X768109Y52714D01*
X768157Y52671D01*
X768226Y52638D01*
X768291Y52595D01*
X768353Y52576D01*
X768410Y52548D01*
X768480Y52537D01*
X768561Y52513D01*
X768646Y52512D01*
X768715Y52501D01*
X771479Y52501D01*
X771574Y52514D01*
X771670Y52519D01*
X771713Y52534D01*
X771758Y52541D01*
X771846Y52580D01*
X771937Y52612D01*
X771971Y52637D01*
X772015Y52657D01*
X772113Y52740D01*
X772186Y52793D01*
X780751Y61359D01*
X783508Y62501D01*
X821492Y62501D01*
X824249Y61359D01*
X831359Y54249D01*
X832501Y51492D01*
X832501Y48508D01*
X831359Y45751D01*
X831314Y45707D01*
X831276Y45655D01*
X831230Y45610D01*
X831191Y45543D01*
X831145Y45481D01*
X831122Y45421D01*
X831091Y45365D01*
X831073Y45290D01*
X831045Y45217D01*
X831040Y45153D01*
X831026Y45090D01*
X831030Y45013D01*
X831024Y44936D01*
X831037Y44873D01*
X831040Y44809D01*
X831065Y44736D01*
X831081Y44660D01*
X831111Y44603D01*
X831133Y44542D01*
X831174Y44486D01*
X831214Y44411D01*
X831272Y44351D01*
X831287Y44327D01*
X831296Y44318D01*
X831314Y44293D01*
X831359Y44249D01*
X832107Y42444D01*
X832111Y42435D01*
X832114Y42426D01*
X832183Y42314D01*
X832250Y42201D01*
X832257Y42194D01*
X832262Y42186D01*
X832360Y42098D01*
X832456Y42008D01*
X832464Y42004D01*
X832471Y41997D01*
X832589Y41940D01*
X832707Y41880D01*
X832717Y41878D01*
X832725Y41874D01*
X832801Y41862D01*
X832984Y41828D01*
X833008Y41830D01*
X833030Y41827D01*
X841395Y41827D01*
X843153Y40069D01*
X843153Y33210D01*
X843161Y33153D01*
X843160Y33094D01*
X843181Y33013D01*
X843193Y32931D01*
X843217Y32878D01*
X843232Y32821D01*
X843271Y32758D01*
X843309Y32674D01*
X843359Y32615D01*
X843394Y32559D01*
X845480Y30132D01*
X845510Y30105D01*
X845531Y30077D01*
X846359Y29249D01*
X846410Y29126D01*
X846412Y29123D01*
X846412Y29119D01*
X846439Y29077D01*
X846553Y28884D01*
X846566Y28871D01*
X846575Y28857D01*
X846661Y28757D01*
X847027Y27644D01*
X847044Y27608D01*
X847053Y27573D01*
X847501Y26492D01*
X847501Y26359D01*
X847501Y26356D01*
X847501Y26352D01*
X847509Y26304D01*
X847541Y26080D01*
X847548Y26064D01*
X847551Y26048D01*
X847592Y25922D01*
X847504Y24754D01*
X847506Y24714D01*
X847501Y24679D01*
X847501Y8508D01*
X846359Y5751D01*
X841500Y892D01*
X841499Y892D01*
X841314Y707D01*
X841295Y681D01*
X841270Y660D01*
X841210Y568D01*
X841145Y481D01*
X841134Y451D01*
X841116Y424D01*
X841084Y319D01*
X841045Y217D01*
X841043Y185D01*
X841034Y154D01*
X841032Y45D01*
X841024Y-64D01*
X841030Y-96D01*
X841030Y-128D01*
X841059Y-233D01*
X841081Y-340D01*
X841096Y-369D01*
X841105Y-400D01*
X841162Y-493D01*
X841214Y-589D01*
X841236Y-612D01*
X841253Y-640D01*
X841334Y-713D01*
X841410Y-791D01*
X841438Y-807D01*
X841462Y-829D01*
X841561Y-876D01*
X841656Y-930D01*
X841687Y-938D01*
X841716Y-952D01*
X841806Y-966D01*
X841930Y-995D01*
X841979Y-993D01*
X842021Y-999D01*
X855000Y-999D01*
X855064Y-990D01*
G37*
G36*
X555020Y249242D02*
X555020Y249242D01*
X555039Y249240D01*
X555141Y249262D01*
X555243Y249279D01*
X555260Y249288D01*
X555280Y249292D01*
X555369Y249345D01*
X555460Y249394D01*
X555474Y249408D01*
X555491Y249418D01*
X555558Y249497D01*
X555630Y249572D01*
X555638Y249590D01*
X555651Y249605D01*
X555690Y249701D01*
X555733Y249795D01*
X555735Y249815D01*
X555743Y249833D01*
X555761Y250000D01*
X555761Y415000D01*
X555758Y415020D01*
X555760Y415039D01*
X555738Y415141D01*
X555722Y415243D01*
X555712Y415260D01*
X555708Y415280D01*
X555655Y415369D01*
X555606Y415460D01*
X555592Y415474D01*
X555582Y415491D01*
X555503Y415558D01*
X555428Y415630D01*
X555410Y415638D01*
X555395Y415651D01*
X555299Y415690D01*
X555205Y415733D01*
X555185Y415735D01*
X555167Y415743D01*
X555000Y415761D01*
X495000Y415761D01*
X494980Y415758D01*
X494961Y415760D01*
X494859Y415738D01*
X494757Y415722D01*
X494740Y415712D01*
X494720Y415708D01*
X494631Y415655D01*
X494540Y415606D01*
X494526Y415592D01*
X494509Y415582D01*
X494442Y415503D01*
X494371Y415428D01*
X494362Y415410D01*
X494349Y415395D01*
X494310Y415299D01*
X494267Y415205D01*
X494265Y415185D01*
X494257Y415167D01*
X494239Y415000D01*
X494239Y345761D01*
X481906Y345761D01*
X481816Y345747D01*
X481725Y345739D01*
X481695Y345727D01*
X481663Y345722D01*
X481583Y345679D01*
X481499Y345643D01*
X481467Y345617D01*
X481446Y345606D01*
X481424Y345583D01*
X481368Y345538D01*
X477197Y341367D01*
X474440Y340225D01*
X451609Y340225D01*
X451538Y340214D01*
X451467Y340212D01*
X451418Y340194D01*
X451366Y340186D01*
X451303Y340152D01*
X451236Y340127D01*
X451195Y340095D01*
X451149Y340070D01*
X451100Y340018D01*
X451044Y339974D01*
X451016Y339930D01*
X450980Y339892D01*
X450950Y339827D01*
X450911Y339767D01*
X450898Y339716D01*
X450876Y339669D01*
X450868Y339598D01*
X450851Y339528D01*
X450855Y339476D01*
X450849Y339425D01*
X450864Y339354D01*
X450870Y339283D01*
X450890Y339235D01*
X450901Y339184D01*
X450938Y339123D01*
X450966Y339057D01*
X451011Y339001D01*
X451027Y338973D01*
X451045Y338958D01*
X451071Y338926D01*
X452771Y337226D01*
X452771Y331312D01*
X452785Y331222D01*
X452793Y331131D01*
X452805Y331101D01*
X452810Y331069D01*
X452853Y330988D01*
X452889Y330904D01*
X452897Y330894D01*
X454437Y327177D01*
X454437Y298011D01*
X452914Y294335D01*
X450224Y291645D01*
X450182Y291586D01*
X450134Y291536D01*
X450126Y291518D01*
X450111Y291501D01*
X450099Y291471D01*
X450080Y291445D01*
X450058Y291372D01*
X450030Y291313D01*
X450028Y291295D01*
X450019Y291273D01*
X450015Y291232D01*
X450008Y291210D01*
X450009Y291178D01*
X450001Y291106D01*
X450001Y278011D01*
X448478Y274335D01*
X445665Y271522D01*
X441989Y269999D01*
X418011Y269999D01*
X414335Y271522D01*
X411522Y274335D01*
X409999Y278011D01*
X409999Y289238D01*
X409996Y289258D01*
X409998Y289277D01*
X409976Y289379D01*
X409960Y289481D01*
X409950Y289498D01*
X409946Y289518D01*
X409893Y289607D01*
X409844Y289698D01*
X409830Y289712D01*
X409820Y289729D01*
X409741Y289796D01*
X409666Y289868D01*
X409648Y289876D01*
X409633Y289889D01*
X409537Y289928D01*
X409443Y289971D01*
X409423Y289973D01*
X409405Y289981D01*
X409238Y289999D01*
X408411Y289999D01*
X404735Y291522D01*
X401922Y294335D01*
X400399Y298011D01*
X400399Y311222D01*
X400380Y311338D01*
X400362Y311457D01*
X400360Y311460D01*
X400360Y311464D01*
X400304Y311570D01*
X400249Y311675D01*
X400246Y311678D01*
X400244Y311682D01*
X400157Y311764D01*
X400073Y311846D01*
X400069Y311848D01*
X400066Y311851D01*
X399958Y311901D01*
X399851Y311952D01*
X399847Y311953D01*
X399843Y311955D01*
X399725Y311968D01*
X399607Y311982D01*
X399602Y311981D01*
X399599Y311982D01*
X399585Y311979D01*
X399441Y311957D01*
X399050Y311852D01*
X394905Y311852D01*
X394905Y324426D01*
X394902Y324446D01*
X394904Y324465D01*
X394882Y324567D01*
X394865Y324669D01*
X394856Y324686D01*
X394852Y324706D01*
X394799Y324795D01*
X394750Y324886D01*
X394736Y324900D01*
X394726Y324917D01*
X394647Y324984D01*
X394572Y325055D01*
X394554Y325064D01*
X394539Y325077D01*
X394443Y325116D01*
X394349Y325159D01*
X394329Y325161D01*
X394311Y325169D01*
X394144Y325187D01*
X392620Y325187D01*
X392600Y325184D01*
X392581Y325186D01*
X392479Y325164D01*
X392377Y325147D01*
X392360Y325138D01*
X392340Y325134D01*
X392251Y325081D01*
X392160Y325032D01*
X392146Y325018D01*
X392129Y325008D01*
X392062Y324929D01*
X391991Y324854D01*
X391982Y324836D01*
X391969Y324821D01*
X391930Y324725D01*
X391887Y324631D01*
X391885Y324611D01*
X391877Y324593D01*
X391859Y324426D01*
X391859Y311852D01*
X390000Y311852D01*
X389980Y311849D01*
X389961Y311851D01*
X389859Y311829D01*
X389757Y311813D01*
X389740Y311803D01*
X389720Y311799D01*
X389631Y311746D01*
X389540Y311697D01*
X389526Y311683D01*
X389509Y311673D01*
X389442Y311594D01*
X389371Y311519D01*
X389362Y311501D01*
X389349Y311486D01*
X389310Y311390D01*
X389267Y311296D01*
X389265Y311276D01*
X389257Y311258D01*
X389239Y311091D01*
X389239Y250000D01*
X389242Y249980D01*
X389240Y249961D01*
X389262Y249859D01*
X389279Y249757D01*
X389288Y249740D01*
X389292Y249720D01*
X389345Y249631D01*
X389394Y249540D01*
X389408Y249526D01*
X389418Y249509D01*
X389497Y249442D01*
X389572Y249371D01*
X389590Y249362D01*
X389605Y249349D01*
X389701Y249310D01*
X389795Y249267D01*
X389815Y249265D01*
X389833Y249257D01*
X390000Y249239D01*
X555000Y249239D01*
X555020Y249242D01*
G37*
G36*
X665020Y354242D02*
X665020Y354242D01*
X665039Y354240D01*
X665141Y354262D01*
X665243Y354279D01*
X665260Y354288D01*
X665280Y354292D01*
X665369Y354345D01*
X665460Y354394D01*
X665474Y354408D01*
X665491Y354418D01*
X665558Y354497D01*
X665630Y354572D01*
X665638Y354590D01*
X665651Y354605D01*
X665690Y354701D01*
X665733Y354795D01*
X665735Y354815D01*
X665743Y354833D01*
X665761Y355000D01*
X665761Y389239D01*
X750000Y389239D01*
X750020Y389242D01*
X750039Y389240D01*
X750141Y389262D01*
X750243Y389279D01*
X750260Y389288D01*
X750280Y389292D01*
X750369Y389345D01*
X750460Y389394D01*
X750474Y389408D01*
X750491Y389418D01*
X750558Y389497D01*
X750630Y389572D01*
X750638Y389590D01*
X750651Y389605D01*
X750690Y389701D01*
X750733Y389795D01*
X750735Y389815D01*
X750743Y389833D01*
X750761Y390000D01*
X750761Y424239D01*
X792442Y424239D01*
X792559Y424258D01*
X792677Y424276D01*
X792681Y424278D01*
X792685Y424279D01*
X792789Y424334D01*
X792896Y424389D01*
X792899Y424392D01*
X792902Y424394D01*
X792983Y424479D01*
X793067Y424565D01*
X793069Y424569D01*
X793072Y424572D01*
X793122Y424681D01*
X793173Y424787D01*
X793174Y424791D01*
X793175Y424795D01*
X793188Y424913D01*
X793203Y425031D01*
X793202Y425036D01*
X793203Y425039D01*
X793200Y425053D01*
X793178Y425197D01*
X793159Y425266D01*
X793159Y430577D01*
X802438Y430577D01*
X802458Y430580D01*
X802477Y430578D01*
X802579Y430600D01*
X802681Y430617D01*
X802698Y430626D01*
X802718Y430630D01*
X802807Y430683D01*
X802898Y430732D01*
X802912Y430746D01*
X802929Y430756D01*
X802996Y430835D01*
X803067Y430910D01*
X803076Y430928D01*
X803089Y430943D01*
X803128Y431039D01*
X803171Y431133D01*
X803173Y431153D01*
X803181Y431171D01*
X803199Y431338D01*
X803199Y432101D01*
X803201Y432101D01*
X803201Y431338D01*
X803204Y431318D01*
X803202Y431299D01*
X803224Y431197D01*
X803241Y431095D01*
X803250Y431078D01*
X803254Y431058D01*
X803307Y430969D01*
X803356Y430878D01*
X803370Y430864D01*
X803380Y430847D01*
X803459Y430780D01*
X803534Y430709D01*
X803552Y430700D01*
X803567Y430687D01*
X803663Y430648D01*
X803757Y430605D01*
X803777Y430603D01*
X803795Y430595D01*
X803962Y430577D01*
X813241Y430577D01*
X813241Y425266D01*
X813222Y425197D01*
X813211Y425078D01*
X813197Y424961D01*
X813198Y424956D01*
X813198Y424952D01*
X813224Y424837D01*
X813250Y424720D01*
X813252Y424717D01*
X813253Y424713D01*
X813315Y424612D01*
X813376Y424509D01*
X813379Y424506D01*
X813381Y424503D01*
X813473Y424426D01*
X813563Y424349D01*
X813567Y424348D01*
X813570Y424345D01*
X813680Y424302D01*
X813791Y424257D01*
X813796Y424257D01*
X813799Y424255D01*
X813813Y424255D01*
X813958Y424239D01*
X820000Y424239D01*
X820020Y424242D01*
X820039Y424240D01*
X820141Y424262D01*
X820243Y424279D01*
X820260Y424288D01*
X820280Y424292D01*
X820369Y424345D01*
X820460Y424394D01*
X820474Y424408D01*
X820491Y424418D01*
X820558Y424497D01*
X820630Y424572D01*
X820638Y424590D01*
X820651Y424605D01*
X820690Y424701D01*
X820733Y424795D01*
X820735Y424815D01*
X820743Y424833D01*
X820761Y425000D01*
X820761Y455000D01*
X820758Y455020D01*
X820760Y455039D01*
X820738Y455141D01*
X820722Y455243D01*
X820712Y455260D01*
X820708Y455280D01*
X820655Y455369D01*
X820606Y455460D01*
X820592Y455474D01*
X820582Y455491D01*
X820503Y455558D01*
X820428Y455630D01*
X820410Y455638D01*
X820395Y455651D01*
X820299Y455690D01*
X820205Y455733D01*
X820185Y455735D01*
X820167Y455743D01*
X820000Y455761D01*
X585000Y455761D01*
X584980Y455758D01*
X584961Y455760D01*
X584859Y455738D01*
X584757Y455722D01*
X584740Y455712D01*
X584720Y455708D01*
X584631Y455655D01*
X584540Y455606D01*
X584526Y455592D01*
X584509Y455582D01*
X584442Y455503D01*
X584371Y455428D01*
X584362Y455410D01*
X584349Y455395D01*
X584310Y455299D01*
X584267Y455205D01*
X584265Y455185D01*
X584257Y455167D01*
X584239Y455000D01*
X584239Y355000D01*
X584242Y354980D01*
X584240Y354961D01*
X584262Y354859D01*
X584279Y354757D01*
X584288Y354740D01*
X584292Y354720D01*
X584345Y354631D01*
X584394Y354540D01*
X584408Y354526D01*
X584418Y354509D01*
X584497Y354442D01*
X584572Y354371D01*
X584590Y354362D01*
X584605Y354349D01*
X584701Y354310D01*
X584795Y354267D01*
X584815Y354265D01*
X584833Y354257D01*
X585000Y354239D01*
X665000Y354239D01*
X665020Y354242D01*
G37*
G36*
X405020Y24242D02*
X405020Y24242D01*
X405039Y24240D01*
X405141Y24262D01*
X405243Y24279D01*
X405260Y24288D01*
X405280Y24292D01*
X405369Y24345D01*
X405460Y24394D01*
X405474Y24408D01*
X405491Y24418D01*
X405558Y24497D01*
X405630Y24572D01*
X405638Y24590D01*
X405651Y24605D01*
X405690Y24701D01*
X405733Y24795D01*
X405735Y24815D01*
X405743Y24833D01*
X405761Y25000D01*
X405761Y190000D01*
X405758Y190020D01*
X405760Y190039D01*
X405738Y190141D01*
X405722Y190243D01*
X405712Y190260D01*
X405708Y190280D01*
X405655Y190369D01*
X405606Y190460D01*
X405592Y190474D01*
X405582Y190491D01*
X405503Y190558D01*
X405428Y190630D01*
X405410Y190638D01*
X405395Y190651D01*
X405299Y190690D01*
X405205Y190733D01*
X405185Y190735D01*
X405167Y190743D01*
X405000Y190761D01*
X345000Y190761D01*
X344980Y190758D01*
X344961Y190760D01*
X344859Y190738D01*
X344757Y190722D01*
X344740Y190712D01*
X344720Y190708D01*
X344631Y190655D01*
X344540Y190606D01*
X344526Y190592D01*
X344509Y190582D01*
X344442Y190503D01*
X344371Y190428D01*
X344362Y190410D01*
X344349Y190395D01*
X344310Y190299D01*
X344267Y190205D01*
X344265Y190185D01*
X344257Y190167D01*
X344239Y190000D01*
X344239Y115761D01*
X336742Y115761D01*
X336652Y115747D01*
X336561Y115739D01*
X336531Y115727D01*
X336499Y115722D01*
X336419Y115679D01*
X336335Y115643D01*
X336303Y115617D01*
X336282Y115606D01*
X336260Y115583D01*
X336204Y115538D01*
X327591Y106925D01*
X324834Y105783D01*
X308037Y105783D01*
X307966Y105772D01*
X307895Y105770D01*
X307846Y105752D01*
X307794Y105744D01*
X307731Y105710D01*
X307664Y105685D01*
X307623Y105653D01*
X307577Y105628D01*
X307528Y105576D01*
X307472Y105532D01*
X307444Y105488D01*
X307408Y105450D01*
X307378Y105385D01*
X307339Y105325D01*
X307326Y105274D01*
X307304Y105227D01*
X307296Y105156D01*
X307279Y105086D01*
X307283Y105034D01*
X307277Y104983D01*
X307292Y104912D01*
X307298Y104841D01*
X307318Y104793D01*
X307329Y104742D01*
X307366Y104681D01*
X307394Y104615D01*
X307439Y104559D01*
X307455Y104531D01*
X307473Y104516D01*
X307499Y104484D01*
X308473Y103510D01*
X308473Y97596D01*
X308487Y97506D01*
X308495Y97415D01*
X308507Y97385D01*
X308512Y97353D01*
X308555Y97272D01*
X308591Y97188D01*
X308599Y97178D01*
X310139Y93461D01*
X310139Y63011D01*
X308616Y59335D01*
X305803Y56522D01*
X305471Y56384D01*
X305372Y56323D01*
X305271Y56263D01*
X305267Y56258D01*
X305262Y56255D01*
X305188Y56165D01*
X305111Y56076D01*
X305109Y56070D01*
X305105Y56065D01*
X305063Y55957D01*
X305019Y55848D01*
X305018Y55840D01*
X305017Y55835D01*
X305016Y55817D01*
X305001Y55681D01*
X305001Y43011D01*
X303478Y39335D01*
X300665Y36522D01*
X296989Y34999D01*
X273011Y34999D01*
X269335Y36522D01*
X266522Y39335D01*
X264999Y43011D01*
X264999Y54238D01*
X264996Y54258D01*
X264998Y54277D01*
X264976Y54379D01*
X264960Y54481D01*
X264950Y54498D01*
X264946Y54518D01*
X264893Y54607D01*
X264844Y54698D01*
X264830Y54712D01*
X264820Y54729D01*
X264741Y54796D01*
X264666Y54868D01*
X264648Y54876D01*
X264633Y54889D01*
X264537Y54928D01*
X264443Y54971D01*
X264423Y54973D01*
X264405Y54981D01*
X264238Y54999D01*
X264113Y54999D01*
X260437Y56522D01*
X257624Y59335D01*
X256101Y63011D01*
X256101Y77506D01*
X256082Y77622D01*
X256064Y77741D01*
X256062Y77744D01*
X256062Y77748D01*
X256006Y77854D01*
X255951Y77959D01*
X255948Y77962D01*
X255946Y77966D01*
X255859Y78048D01*
X255775Y78130D01*
X255771Y78132D01*
X255768Y78135D01*
X255660Y78185D01*
X255553Y78236D01*
X255549Y78237D01*
X255545Y78239D01*
X255427Y78252D01*
X255309Y78266D01*
X255304Y78265D01*
X255301Y78266D01*
X255287Y78263D01*
X255143Y78241D01*
X254752Y78136D01*
X250607Y78136D01*
X250607Y90710D01*
X250604Y90730D01*
X250606Y90749D01*
X250584Y90851D01*
X250567Y90953D01*
X250558Y90970D01*
X250554Y90990D01*
X250501Y91079D01*
X250452Y91170D01*
X250438Y91184D01*
X250428Y91201D01*
X250349Y91268D01*
X250274Y91339D01*
X250256Y91348D01*
X250241Y91361D01*
X250145Y91400D01*
X250051Y91443D01*
X250031Y91445D01*
X250013Y91453D01*
X249846Y91471D01*
X248322Y91471D01*
X248302Y91468D01*
X248283Y91470D01*
X248181Y91448D01*
X248079Y91431D01*
X248062Y91422D01*
X248042Y91418D01*
X247953Y91365D01*
X247862Y91316D01*
X247848Y91302D01*
X247831Y91292D01*
X247764Y91213D01*
X247693Y91138D01*
X247684Y91120D01*
X247671Y91105D01*
X247632Y91009D01*
X247589Y90915D01*
X247587Y90895D01*
X247579Y90877D01*
X247561Y90710D01*
X247561Y78136D01*
X245000Y78136D01*
X244980Y78133D01*
X244961Y78135D01*
X244859Y78113D01*
X244757Y78097D01*
X244740Y78087D01*
X244720Y78083D01*
X244631Y78030D01*
X244540Y77981D01*
X244526Y77967D01*
X244509Y77957D01*
X244442Y77878D01*
X244371Y77803D01*
X244362Y77785D01*
X244349Y77770D01*
X244310Y77674D01*
X244267Y77580D01*
X244265Y77560D01*
X244257Y77542D01*
X244239Y77375D01*
X244239Y34618D01*
X244254Y34528D01*
X244261Y34437D01*
X244273Y34407D01*
X244279Y34375D01*
X244321Y34294D01*
X244357Y34210D01*
X244383Y34178D01*
X244394Y34158D01*
X244417Y34135D01*
X244462Y34079D01*
X254079Y24462D01*
X254153Y24409D01*
X254223Y24349D01*
X254253Y24337D01*
X254279Y24318D01*
X254366Y24291D01*
X254451Y24257D01*
X254492Y24253D01*
X254514Y24246D01*
X254546Y24247D01*
X254618Y24239D01*
X405000Y24239D01*
X405020Y24242D01*
G37*
G36*
X675020Y104242D02*
X675020Y104242D01*
X675039Y104240D01*
X675141Y104262D01*
X675243Y104279D01*
X675260Y104288D01*
X675280Y104292D01*
X675369Y104345D01*
X675460Y104394D01*
X675474Y104408D01*
X675491Y104418D01*
X675558Y104497D01*
X675630Y104572D01*
X675638Y104590D01*
X675651Y104605D01*
X675690Y104701D01*
X675733Y104795D01*
X675735Y104815D01*
X675743Y104833D01*
X675761Y105000D01*
X675761Y125000D01*
X675758Y125020D01*
X675760Y125039D01*
X675738Y125141D01*
X675722Y125243D01*
X675712Y125260D01*
X675708Y125280D01*
X675655Y125369D01*
X675606Y125460D01*
X675592Y125474D01*
X675582Y125491D01*
X675503Y125558D01*
X675428Y125630D01*
X675410Y125638D01*
X675395Y125651D01*
X675299Y125690D01*
X675205Y125733D01*
X675185Y125735D01*
X675167Y125743D01*
X675000Y125761D01*
X663190Y125761D01*
X663170Y125758D01*
X663151Y125760D01*
X663049Y125738D01*
X662947Y125722D01*
X662930Y125712D01*
X662910Y125708D01*
X662821Y125655D01*
X662730Y125606D01*
X662716Y125592D01*
X662699Y125582D01*
X662632Y125503D01*
X662560Y125428D01*
X662552Y125410D01*
X662539Y125395D01*
X662500Y125299D01*
X662457Y125205D01*
X662455Y125185D01*
X662447Y125167D01*
X662429Y125000D01*
X662429Y122621D01*
X653150Y122621D01*
X653130Y122618D01*
X653111Y122620D01*
X653009Y122598D01*
X652907Y122581D01*
X652890Y122572D01*
X652870Y122568D01*
X652781Y122515D01*
X652690Y122466D01*
X652676Y122452D01*
X652659Y122442D01*
X652592Y122363D01*
X652521Y122288D01*
X652512Y122270D01*
X652499Y122255D01*
X652460Y122159D01*
X652417Y122065D01*
X652415Y122045D01*
X652407Y122027D01*
X652389Y121860D01*
X652389Y121097D01*
X652387Y121097D01*
X652387Y121860D01*
X652384Y121880D01*
X652386Y121899D01*
X652364Y122001D01*
X652347Y122103D01*
X652338Y122120D01*
X652334Y122140D01*
X652281Y122229D01*
X652232Y122320D01*
X652218Y122334D01*
X652208Y122351D01*
X652129Y122418D01*
X652054Y122489D01*
X652036Y122498D01*
X652021Y122511D01*
X651925Y122550D01*
X651831Y122593D01*
X651811Y122595D01*
X651793Y122603D01*
X651626Y122621D01*
X642347Y122621D01*
X642347Y125000D01*
X642344Y125020D01*
X642346Y125039D01*
X642324Y125141D01*
X642308Y125243D01*
X642298Y125260D01*
X642294Y125280D01*
X642241Y125369D01*
X642192Y125460D01*
X642178Y125474D01*
X642168Y125491D01*
X642089Y125558D01*
X642014Y125630D01*
X641996Y125638D01*
X641981Y125651D01*
X641885Y125690D01*
X641791Y125733D01*
X641771Y125735D01*
X641753Y125743D01*
X641586Y125761D01*
X605761Y125761D01*
X605761Y155000D01*
X605758Y155020D01*
X605760Y155039D01*
X605738Y155141D01*
X605722Y155243D01*
X605712Y155260D01*
X605708Y155280D01*
X605655Y155369D01*
X605606Y155460D01*
X605592Y155474D01*
X605582Y155491D01*
X605503Y155558D01*
X605428Y155630D01*
X605410Y155638D01*
X605395Y155651D01*
X605299Y155690D01*
X605205Y155733D01*
X605185Y155735D01*
X605167Y155743D01*
X605000Y155761D01*
X500761Y155761D01*
X500761Y190000D01*
X500758Y190020D01*
X500760Y190039D01*
X500738Y190141D01*
X500722Y190243D01*
X500712Y190260D01*
X500708Y190280D01*
X500655Y190369D01*
X500606Y190460D01*
X500592Y190474D01*
X500582Y190491D01*
X500503Y190558D01*
X500428Y190630D01*
X500410Y190638D01*
X500395Y190651D01*
X500299Y190690D01*
X500205Y190733D01*
X500185Y190735D01*
X500167Y190743D01*
X500000Y190761D01*
X430000Y190761D01*
X429980Y190758D01*
X429961Y190760D01*
X429859Y190738D01*
X429757Y190722D01*
X429740Y190712D01*
X429720Y190708D01*
X429631Y190655D01*
X429540Y190606D01*
X429526Y190592D01*
X429509Y190582D01*
X429442Y190503D01*
X429371Y190428D01*
X429362Y190410D01*
X429349Y190395D01*
X429310Y190299D01*
X429267Y190205D01*
X429265Y190185D01*
X429257Y190167D01*
X429239Y190000D01*
X429239Y105000D01*
X429242Y104980D01*
X429240Y104961D01*
X429262Y104859D01*
X429279Y104757D01*
X429288Y104740D01*
X429292Y104720D01*
X429345Y104631D01*
X429394Y104540D01*
X429408Y104526D01*
X429418Y104509D01*
X429497Y104442D01*
X429572Y104371D01*
X429590Y104362D01*
X429605Y104349D01*
X429701Y104310D01*
X429795Y104267D01*
X429815Y104265D01*
X429833Y104257D01*
X430000Y104239D01*
X675000Y104239D01*
X675020Y104242D01*
G37*
G36*
X155020Y348146D02*
X155020Y348146D01*
X155039Y348144D01*
X155141Y348166D01*
X155243Y348183D01*
X155260Y348192D01*
X155280Y348196D01*
X155369Y348249D01*
X155460Y348298D01*
X155474Y348312D01*
X155491Y348322D01*
X155558Y348401D01*
X155630Y348476D01*
X155638Y348494D01*
X155651Y348509D01*
X155690Y348605D01*
X155733Y348699D01*
X155735Y348719D01*
X155743Y348737D01*
X155761Y348904D01*
X155761Y415311D01*
X155758Y415331D01*
X155760Y415350D01*
X155738Y415452D01*
X155722Y415554D01*
X155712Y415571D01*
X155708Y415591D01*
X155655Y415680D01*
X155606Y415771D01*
X155592Y415785D01*
X155582Y415802D01*
X155503Y415869D01*
X155428Y415941D01*
X155410Y415949D01*
X155395Y415962D01*
X155299Y416001D01*
X155205Y416044D01*
X155185Y416046D01*
X155167Y416054D01*
X155000Y416072D01*
X150753Y416072D01*
X150753Y426866D01*
X150750Y426886D01*
X150752Y426905D01*
X150730Y427007D01*
X150713Y427109D01*
X150704Y427126D01*
X150700Y427146D01*
X150647Y427235D01*
X150598Y427326D01*
X150584Y427340D01*
X150574Y427357D01*
X150495Y427424D01*
X150420Y427495D01*
X150402Y427504D01*
X150387Y427517D01*
X150291Y427556D01*
X150197Y427599D01*
X150177Y427601D01*
X150159Y427609D01*
X149992Y427627D01*
X149229Y427627D01*
X149229Y427629D01*
X149992Y427629D01*
X150012Y427632D01*
X150031Y427630D01*
X150133Y427652D01*
X150235Y427669D01*
X150252Y427678D01*
X150272Y427682D01*
X150361Y427735D01*
X150452Y427784D01*
X150466Y427798D01*
X150483Y427808D01*
X150550Y427887D01*
X150621Y427962D01*
X150630Y427980D01*
X150643Y427995D01*
X150682Y428091D01*
X150725Y428185D01*
X150727Y428205D01*
X150735Y428223D01*
X150753Y428390D01*
X150753Y439184D01*
X155000Y439184D01*
X155020Y439187D01*
X155039Y439185D01*
X155141Y439207D01*
X155243Y439223D01*
X155260Y439233D01*
X155280Y439237D01*
X155369Y439290D01*
X155460Y439339D01*
X155474Y439353D01*
X155491Y439363D01*
X155558Y439442D01*
X155630Y439517D01*
X155638Y439535D01*
X155651Y439550D01*
X155690Y439646D01*
X155733Y439740D01*
X155735Y439760D01*
X155743Y439778D01*
X155761Y439945D01*
X155761Y450000D01*
X155758Y450020D01*
X155760Y450039D01*
X155738Y450141D01*
X155722Y450243D01*
X155712Y450260D01*
X155708Y450280D01*
X155655Y450369D01*
X155606Y450460D01*
X155592Y450474D01*
X155582Y450491D01*
X155503Y450558D01*
X155428Y450630D01*
X155410Y450638D01*
X155395Y450651D01*
X155299Y450690D01*
X155205Y450733D01*
X155185Y450735D01*
X155167Y450743D01*
X155000Y450761D01*
X75000Y450761D01*
X74980Y450758D01*
X74961Y450760D01*
X74859Y450738D01*
X74757Y450722D01*
X74740Y450712D01*
X74720Y450708D01*
X74631Y450655D01*
X74540Y450606D01*
X74526Y450592D01*
X74509Y450582D01*
X74442Y450503D01*
X74371Y450428D01*
X74362Y450410D01*
X74349Y450395D01*
X74310Y450299D01*
X74267Y450205D01*
X74265Y450185D01*
X74257Y450167D01*
X74239Y450000D01*
X74239Y348904D01*
X74242Y348884D01*
X74240Y348865D01*
X74262Y348763D01*
X74279Y348661D01*
X74288Y348644D01*
X74292Y348624D01*
X74345Y348535D01*
X74394Y348444D01*
X74408Y348430D01*
X74418Y348413D01*
X74497Y348346D01*
X74572Y348275D01*
X74590Y348266D01*
X74605Y348253D01*
X74701Y348214D01*
X74795Y348171D01*
X74815Y348169D01*
X74833Y348161D01*
X75000Y348143D01*
X155000Y348143D01*
X155020Y348146D01*
G37*
G36*
X300064Y249010D02*
X300064Y249010D01*
X300128Y249009D01*
X300203Y249030D01*
X300279Y249041D01*
X300338Y249067D01*
X300400Y249084D01*
X300466Y249125D01*
X300536Y249157D01*
X300585Y249199D01*
X300640Y249232D01*
X300692Y249290D01*
X300750Y249340D01*
X300786Y249394D01*
X300829Y249442D01*
X300862Y249511D01*
X300905Y249576D01*
X300924Y249638D01*
X300952Y249695D01*
X300963Y249765D01*
X300987Y249846D01*
X300988Y249931D01*
X300999Y250000D01*
X300999Y355000D01*
X300990Y355064D01*
X300991Y355128D01*
X300970Y355203D01*
X300959Y355279D01*
X300933Y355338D01*
X300916Y355400D01*
X300875Y355466D01*
X300843Y355536D01*
X300801Y355585D01*
X300768Y355640D01*
X300710Y355692D01*
X300660Y355750D01*
X300606Y355786D01*
X300558Y355829D01*
X300489Y355862D01*
X300424Y355905D01*
X300362Y355924D01*
X300305Y355952D01*
X300235Y355963D01*
X300154Y355987D01*
X300069Y355988D01*
X300000Y355999D01*
X225000Y355999D01*
X224936Y355990D01*
X224872Y355991D01*
X224797Y355970D01*
X224721Y355959D01*
X224662Y355933D01*
X224600Y355916D01*
X224534Y355875D01*
X224464Y355843D01*
X224415Y355801D01*
X224360Y355768D01*
X224308Y355710D01*
X224250Y355660D01*
X224214Y355606D01*
X224171Y355558D01*
X224138Y355489D01*
X224095Y355424D01*
X224076Y355362D01*
X224048Y355305D01*
X224037Y355235D01*
X224013Y355154D01*
X224012Y355069D01*
X224001Y355000D01*
X224001Y250000D01*
X224010Y249936D01*
X224009Y249872D01*
X224030Y249797D01*
X224041Y249721D01*
X224067Y249662D01*
X224084Y249600D01*
X224125Y249534D01*
X224157Y249464D01*
X224199Y249415D01*
X224232Y249360D01*
X224290Y249308D01*
X224340Y249250D01*
X224394Y249214D01*
X224442Y249171D01*
X224511Y249138D01*
X224576Y249095D01*
X224638Y249076D01*
X224695Y249048D01*
X224765Y249037D01*
X224846Y249013D01*
X224931Y249012D01*
X225000Y249001D01*
X300000Y249001D01*
X300064Y249010D01*
G37*
%LPC*%
G36*
X794205Y76973D02*
X794205Y76973D01*
X792447Y78731D01*
X792447Y101537D01*
X794205Y103295D01*
X803295Y103295D01*
X804393Y102196D01*
X804445Y102158D01*
X804490Y102112D01*
X804557Y102073D01*
X804619Y102027D01*
X804679Y102004D01*
X804735Y101973D01*
X804810Y101955D01*
X804883Y101927D01*
X804947Y101922D01*
X805010Y101908D01*
X805087Y101912D01*
X805164Y101906D01*
X805227Y101919D01*
X805291Y101922D01*
X805364Y101947D01*
X805440Y101963D01*
X805497Y101993D01*
X805558Y102015D01*
X805614Y102056D01*
X805689Y102096D01*
X805750Y102155D01*
X805807Y102196D01*
X806905Y103295D01*
X815995Y103295D01*
X817419Y101871D01*
X817470Y101832D01*
X817515Y101786D01*
X817582Y101748D01*
X817644Y101702D01*
X817704Y101679D01*
X817760Y101647D01*
X817836Y101629D01*
X817908Y101602D01*
X817972Y101597D01*
X818035Y101582D01*
X818112Y101586D01*
X818189Y101580D01*
X818252Y101593D01*
X818316Y101597D01*
X818389Y101622D01*
X818465Y101638D01*
X818522Y101668D01*
X818583Y101689D01*
X818640Y101731D01*
X818714Y101770D01*
X818775Y101830D01*
X818832Y101871D01*
X819288Y102327D01*
X819867Y102662D01*
X820513Y102835D01*
X822500Y102835D01*
X822500Y90785D01*
X822509Y90722D01*
X822508Y90657D01*
X822529Y90583D01*
X822540Y90506D01*
X822566Y90448D01*
X822583Y90386D01*
X822624Y90320D01*
X822656Y90249D01*
X822697Y90200D01*
X822731Y90146D01*
X822743Y90135D01*
X822713Y90089D01*
X822670Y90041D01*
X822637Y89972D01*
X822594Y89907D01*
X822575Y89845D01*
X822547Y89787D01*
X822536Y89718D01*
X822512Y89637D01*
X822511Y89552D01*
X822500Y89483D01*
X822500Y77433D01*
X820513Y77433D01*
X819867Y77606D01*
X819288Y77941D01*
X818832Y78397D01*
X818780Y78436D01*
X818736Y78482D01*
X818668Y78520D01*
X818606Y78566D01*
X818546Y78589D01*
X818490Y78621D01*
X818415Y78639D01*
X818342Y78666D01*
X818278Y78671D01*
X818216Y78686D01*
X818138Y78682D01*
X818061Y78688D01*
X817998Y78675D01*
X817934Y78671D01*
X817861Y78646D01*
X817785Y78630D01*
X817728Y78600D01*
X817668Y78579D01*
X817611Y78537D01*
X817536Y78498D01*
X817475Y78438D01*
X817419Y78397D01*
X815995Y76973D01*
X806905Y76973D01*
X805807Y78072D01*
X805755Y78110D01*
X805710Y78156D01*
X805643Y78195D01*
X805581Y78241D01*
X805521Y78264D01*
X805465Y78295D01*
X805390Y78313D01*
X805317Y78341D01*
X805253Y78346D01*
X805191Y78360D01*
X805113Y78356D01*
X805036Y78362D01*
X804973Y78349D01*
X804909Y78346D01*
X804836Y78321D01*
X804760Y78305D01*
X804703Y78275D01*
X804642Y78253D01*
X804586Y78212D01*
X804511Y78172D01*
X804450Y78113D01*
X804393Y78072D01*
X803295Y76973D01*
X794205Y76973D01*
G37*
%LPD*%
%LPC*%
G36*
X615823Y392323D02*
X615823Y392323D01*
X615823Y410841D01*
X637134Y410841D01*
X637781Y410668D01*
X638360Y410333D01*
X638833Y409860D01*
X639168Y409281D01*
X639341Y408634D01*
X639341Y392323D01*
X615823Y392323D01*
G37*
%LPD*%
%LPC*%
G36*
X463283Y166047D02*
X463283Y166047D01*
X463283Y184565D01*
X484594Y184565D01*
X485241Y184392D01*
X485820Y184057D01*
X486293Y183584D01*
X486628Y183005D01*
X486801Y182358D01*
X486801Y166047D01*
X463283Y166047D01*
G37*
%LPD*%
%LPC*%
G36*
X374283Y166047D02*
X374283Y166047D01*
X374283Y184565D01*
X395594Y184565D01*
X396241Y184392D01*
X396820Y184057D01*
X397293Y183584D01*
X397628Y183005D01*
X397801Y182358D01*
X397801Y166047D01*
X374283Y166047D01*
G37*
%LPD*%
%LPC*%
G36*
X526823Y392323D02*
X526823Y392323D01*
X526823Y410841D01*
X548134Y410841D01*
X548781Y410668D01*
X549360Y410333D01*
X549833Y409860D01*
X550168Y409281D01*
X550341Y408634D01*
X550341Y392323D01*
X526823Y392323D01*
G37*
%LPD*%
%LPC*%
G36*
X500259Y392323D02*
X500259Y392323D01*
X500259Y408634D01*
X500432Y409281D01*
X500767Y409860D01*
X501240Y410333D01*
X501819Y410668D01*
X502466Y410841D01*
X523777Y410841D01*
X523777Y392323D01*
X500259Y392323D01*
G37*
%LPD*%
%LPC*%
G36*
X436719Y166047D02*
X436719Y166047D01*
X436719Y182358D01*
X436892Y183005D01*
X437227Y183584D01*
X437700Y184057D01*
X438279Y184392D01*
X438926Y184565D01*
X460237Y184565D01*
X460237Y166047D01*
X436719Y166047D01*
G37*
%LPD*%
%LPC*%
G36*
X347719Y166047D02*
X347719Y166047D01*
X347719Y182358D01*
X347892Y183005D01*
X348227Y183584D01*
X348700Y184057D01*
X349279Y184392D01*
X349926Y184565D01*
X371237Y184565D01*
X371237Y166047D01*
X347719Y166047D01*
G37*
%LPD*%
%LPC*%
G36*
X589259Y392323D02*
X589259Y392323D01*
X589259Y408634D01*
X589432Y409281D01*
X589767Y409860D01*
X590240Y410333D01*
X590819Y410668D01*
X591466Y410841D01*
X612777Y410841D01*
X612777Y392323D01*
X589259Y392323D01*
G37*
%LPD*%
%LPC*%
G36*
X526823Y370759D02*
X526823Y370759D01*
X526823Y389277D01*
X550341Y389277D01*
X550341Y372966D01*
X550168Y372319D01*
X549833Y371740D01*
X549360Y371267D01*
X548781Y370932D01*
X548134Y370759D01*
X526823Y370759D01*
G37*
%LPD*%
%LPC*%
G36*
X615823Y370759D02*
X615823Y370759D01*
X615823Y389277D01*
X639341Y389277D01*
X639341Y372966D01*
X639168Y372319D01*
X638833Y371740D01*
X638360Y371267D01*
X637781Y370932D01*
X637134Y370759D01*
X615823Y370759D01*
G37*
%LPD*%
%LPC*%
G36*
X463283Y144483D02*
X463283Y144483D01*
X463283Y163001D01*
X486801Y163001D01*
X486801Y146690D01*
X486628Y146043D01*
X486293Y145464D01*
X485820Y144991D01*
X485241Y144656D01*
X484594Y144483D01*
X463283Y144483D01*
G37*
%LPD*%
%LPC*%
G36*
X374283Y144483D02*
X374283Y144483D01*
X374283Y163001D01*
X397801Y163001D01*
X397801Y146690D01*
X397628Y146043D01*
X397293Y145464D01*
X396820Y144991D01*
X396241Y144656D01*
X395594Y144483D01*
X374283Y144483D01*
G37*
%LPD*%
%LPC*%
G36*
X349926Y144483D02*
X349926Y144483D01*
X349279Y144656D01*
X348700Y144991D01*
X348227Y145464D01*
X347892Y146043D01*
X347719Y146690D01*
X347719Y163001D01*
X371237Y163001D01*
X371237Y144483D01*
X349926Y144483D01*
G37*
%LPD*%
%LPC*%
G36*
X438926Y144483D02*
X438926Y144483D01*
X438279Y144656D01*
X437700Y144991D01*
X437227Y145464D01*
X436892Y146043D01*
X436719Y146690D01*
X436719Y163001D01*
X460237Y163001D01*
X460237Y144483D01*
X438926Y144483D01*
G37*
%LPD*%
%LPC*%
G36*
X502466Y370759D02*
X502466Y370759D01*
X501819Y370932D01*
X501240Y371267D01*
X500767Y371740D01*
X500432Y372319D01*
X500259Y372966D01*
X500259Y389277D01*
X523777Y389277D01*
X523777Y370759D01*
X502466Y370759D01*
G37*
%LPD*%
%LPC*%
G36*
X591466Y370759D02*
X591466Y370759D01*
X590819Y370932D01*
X590240Y371267D01*
X589767Y371740D01*
X589432Y372319D01*
X589259Y372966D01*
X589259Y389277D01*
X612777Y389277D01*
X612777Y370759D01*
X591466Y370759D01*
G37*
%LPD*%
G36*
X249866Y91476D02*
X249866Y91476D01*
X249885Y91474D01*
X249987Y91496D01*
X250089Y91513D01*
X250106Y91522D01*
X250126Y91526D01*
X250215Y91579D01*
X250306Y91628D01*
X250320Y91642D01*
X250337Y91652D01*
X250404Y91731D01*
X250475Y91806D01*
X250484Y91824D01*
X250497Y91839D01*
X250536Y91935D01*
X250579Y92029D01*
X250581Y92049D01*
X250589Y92067D01*
X250607Y92234D01*
X250607Y104808D01*
X254753Y104808D01*
X255399Y104635D01*
X255978Y104300D01*
X256451Y103827D01*
X256553Y103651D01*
X256629Y103558D01*
X256702Y103466D01*
X256706Y103464D01*
X256709Y103460D01*
X256809Y103397D01*
X256909Y103333D01*
X256914Y103332D01*
X256917Y103330D01*
X257032Y103302D01*
X257148Y103273D01*
X257152Y103273D01*
X257156Y103272D01*
X257275Y103283D01*
X257393Y103292D01*
X257397Y103294D01*
X257401Y103294D01*
X257511Y103342D01*
X257619Y103388D01*
X257623Y103391D01*
X257626Y103393D01*
X257637Y103402D01*
X257750Y103493D01*
X259525Y105268D01*
X272679Y105268D01*
X274073Y103874D01*
X274089Y103862D01*
X274101Y103847D01*
X274189Y103791D01*
X274272Y103730D01*
X274291Y103725D01*
X274308Y103714D01*
X274409Y103688D01*
X274508Y103658D01*
X274527Y103659D01*
X274547Y103654D01*
X274650Y103662D01*
X274753Y103664D01*
X274772Y103671D01*
X274792Y103673D01*
X274887Y103713D01*
X274984Y103749D01*
X275000Y103761D01*
X275018Y103769D01*
X275149Y103874D01*
X275396Y104121D01*
X275449Y104195D01*
X275509Y104264D01*
X275521Y104295D01*
X275540Y104321D01*
X275567Y104408D01*
X275601Y104493D01*
X275605Y104533D01*
X275612Y104556D01*
X275611Y104588D01*
X275619Y104659D01*
X275619Y109352D01*
X276761Y112109D01*
X279114Y114462D01*
X279156Y114520D01*
X279205Y114572D01*
X279227Y114619D01*
X279258Y114661D01*
X279279Y114730D01*
X279309Y114795D01*
X279315Y114847D01*
X279330Y114897D01*
X279328Y114968D01*
X279336Y115039D01*
X279325Y115090D01*
X279324Y115142D01*
X279299Y115210D01*
X279284Y115280D01*
X279257Y115324D01*
X279239Y115373D01*
X279194Y115429D01*
X279158Y115491D01*
X279118Y115525D01*
X279085Y115565D01*
X279025Y115604D01*
X278971Y115651D01*
X278922Y115670D01*
X278879Y115698D01*
X278809Y115716D01*
X278743Y115743D01*
X278671Y115751D01*
X278640Y115759D01*
X278617Y115757D01*
X278576Y115761D01*
X245000Y115761D01*
X244980Y115758D01*
X244961Y115760D01*
X244859Y115738D01*
X244757Y115722D01*
X244740Y115712D01*
X244720Y115708D01*
X244631Y115655D01*
X244540Y115606D01*
X244526Y115592D01*
X244509Y115582D01*
X244442Y115503D01*
X244371Y115428D01*
X244362Y115410D01*
X244349Y115395D01*
X244310Y115299D01*
X244267Y115205D01*
X244265Y115185D01*
X244257Y115167D01*
X244239Y115000D01*
X244239Y105569D01*
X244242Y105549D01*
X244240Y105530D01*
X244262Y105428D01*
X244279Y105326D01*
X244288Y105309D01*
X244292Y105289D01*
X244345Y105200D01*
X244394Y105109D01*
X244408Y105095D01*
X244418Y105078D01*
X244497Y105011D01*
X244572Y104939D01*
X244590Y104931D01*
X244605Y104918D01*
X244701Y104879D01*
X244795Y104836D01*
X244815Y104834D01*
X244833Y104826D01*
X245000Y104808D01*
X247561Y104808D01*
X247561Y92234D01*
X247564Y92214D01*
X247562Y92195D01*
X247584Y92093D01*
X247601Y91991D01*
X247610Y91974D01*
X247614Y91954D01*
X247667Y91865D01*
X247716Y91774D01*
X247730Y91760D01*
X247740Y91743D01*
X247819Y91676D01*
X247894Y91605D01*
X247912Y91596D01*
X247927Y91583D01*
X248023Y91544D01*
X248117Y91501D01*
X248137Y91499D01*
X248155Y91491D01*
X248322Y91473D01*
X249846Y91473D01*
X249866Y91476D01*
G37*
G36*
X394164Y325192D02*
X394164Y325192D01*
X394183Y325190D01*
X394285Y325212D01*
X394387Y325229D01*
X394404Y325238D01*
X394424Y325242D01*
X394513Y325295D01*
X394604Y325344D01*
X394618Y325358D01*
X394635Y325368D01*
X394702Y325447D01*
X394773Y325522D01*
X394782Y325540D01*
X394795Y325555D01*
X394834Y325651D01*
X394877Y325745D01*
X394879Y325765D01*
X394887Y325783D01*
X394905Y325950D01*
X394905Y338524D01*
X399051Y338524D01*
X399697Y338351D01*
X400276Y338016D01*
X400749Y337543D01*
X400851Y337367D01*
X400927Y337273D01*
X401000Y337182D01*
X401004Y337180D01*
X401007Y337176D01*
X401107Y337113D01*
X401207Y337049D01*
X401212Y337048D01*
X401215Y337046D01*
X401330Y337018D01*
X401446Y336989D01*
X401450Y336989D01*
X401454Y336988D01*
X401573Y336999D01*
X401691Y337008D01*
X401695Y337010D01*
X401699Y337010D01*
X401809Y337058D01*
X401917Y337104D01*
X401921Y337107D01*
X401924Y337109D01*
X401935Y337118D01*
X402048Y337209D01*
X403823Y338984D01*
X416977Y338984D01*
X418371Y337590D01*
X418387Y337578D01*
X418399Y337563D01*
X418487Y337507D01*
X418570Y337446D01*
X418589Y337441D01*
X418606Y337430D01*
X418707Y337404D01*
X418806Y337374D01*
X418825Y337375D01*
X418845Y337370D01*
X418948Y337378D01*
X419051Y337380D01*
X419070Y337387D01*
X419090Y337389D01*
X419185Y337429D01*
X419282Y337465D01*
X419298Y337477D01*
X419316Y337485D01*
X419447Y337590D01*
X419694Y337837D01*
X419747Y337911D01*
X419807Y337980D01*
X419819Y338011D01*
X419838Y338037D01*
X419865Y338124D01*
X419899Y338209D01*
X419903Y338249D01*
X419910Y338272D01*
X419909Y338304D01*
X419917Y338375D01*
X419917Y345000D01*
X419914Y345020D01*
X419916Y345039D01*
X419894Y345141D01*
X419878Y345243D01*
X419868Y345260D01*
X419864Y345280D01*
X419811Y345369D01*
X419762Y345460D01*
X419748Y345474D01*
X419738Y345491D01*
X419659Y345558D01*
X419584Y345630D01*
X419566Y345638D01*
X419551Y345651D01*
X419455Y345690D01*
X419361Y345733D01*
X419341Y345735D01*
X419323Y345743D01*
X419156Y345761D01*
X390000Y345761D01*
X389980Y345758D01*
X389961Y345760D01*
X389859Y345738D01*
X389757Y345722D01*
X389740Y345712D01*
X389720Y345708D01*
X389631Y345655D01*
X389540Y345606D01*
X389526Y345592D01*
X389509Y345582D01*
X389442Y345503D01*
X389371Y345428D01*
X389362Y345410D01*
X389349Y345395D01*
X389310Y345299D01*
X389267Y345205D01*
X389265Y345185D01*
X389257Y345167D01*
X389239Y345000D01*
X389239Y339285D01*
X389242Y339265D01*
X389240Y339246D01*
X389262Y339144D01*
X389279Y339042D01*
X389288Y339025D01*
X389292Y339005D01*
X389345Y338916D01*
X389394Y338825D01*
X389408Y338811D01*
X389418Y338794D01*
X389497Y338727D01*
X389572Y338655D01*
X389590Y338647D01*
X389605Y338634D01*
X389701Y338595D01*
X389795Y338552D01*
X389815Y338550D01*
X389833Y338542D01*
X390000Y338524D01*
X391859Y338524D01*
X391859Y325950D01*
X391862Y325930D01*
X391860Y325911D01*
X391882Y325809D01*
X391899Y325707D01*
X391908Y325690D01*
X391912Y325670D01*
X391965Y325581D01*
X392014Y325490D01*
X392028Y325476D01*
X392038Y325459D01*
X392117Y325392D01*
X392192Y325321D01*
X392210Y325312D01*
X392225Y325299D01*
X392321Y325260D01*
X392415Y325217D01*
X392435Y325215D01*
X392453Y325207D01*
X392620Y325189D01*
X394144Y325189D01*
X394164Y325192D01*
G37*
%LPC*%
G36*
X267915Y415285D02*
X267915Y415285D01*
X267915Y439803D01*
X276226Y439803D01*
X276873Y439630D01*
X277452Y439295D01*
X277925Y438822D01*
X278260Y438243D01*
X278433Y437596D01*
X278433Y415285D01*
X267915Y415285D01*
G37*
%LPD*%
%LPC*%
G36*
X267915Y412239D02*
X267915Y412239D01*
X278433Y412239D01*
X278433Y389928D01*
X278260Y389281D01*
X277925Y388702D01*
X277452Y388229D01*
X276873Y387894D01*
X276226Y387721D01*
X267915Y387721D01*
X267915Y412239D01*
G37*
%LPD*%
%LPC*%
G36*
X254351Y415285D02*
X254351Y415285D01*
X254351Y437596D01*
X254524Y438243D01*
X254859Y438822D01*
X255332Y439295D01*
X255911Y439630D01*
X256558Y439803D01*
X264869Y439803D01*
X264869Y415285D01*
X254351Y415285D01*
G37*
%LPD*%
%LPC*%
G36*
X256558Y387721D02*
X256558Y387721D01*
X255911Y387894D01*
X255332Y388229D01*
X254859Y388702D01*
X254524Y389281D01*
X254351Y389928D01*
X254351Y412239D01*
X264869Y412239D01*
X264869Y387721D01*
X256558Y387721D01*
G37*
%LPD*%
%LPC*%
G36*
X268391Y325761D02*
X268391Y325761D01*
X268391Y349803D01*
X276227Y349803D01*
X276873Y349630D01*
X277452Y349295D01*
X277925Y348822D01*
X278260Y348243D01*
X278433Y347597D01*
X278433Y325761D01*
X268391Y325761D01*
G37*
%LPD*%
%LPC*%
G36*
X268391Y297721D02*
X268391Y297721D01*
X268391Y321763D01*
X278433Y321763D01*
X278433Y299927D01*
X278260Y299281D01*
X277925Y298702D01*
X277452Y298229D01*
X276873Y297894D01*
X276227Y297721D01*
X268391Y297721D01*
G37*
%LPD*%
%LPC*%
G36*
X254351Y325761D02*
X254351Y325761D01*
X254351Y347597D01*
X254524Y348243D01*
X254859Y348822D01*
X255332Y349295D01*
X255911Y349630D01*
X256557Y349803D01*
X264393Y349803D01*
X264393Y325761D01*
X254351Y325761D01*
G37*
%LPD*%
%LPC*%
G36*
X256557Y297721D02*
X256557Y297721D01*
X255911Y297894D01*
X255332Y298229D01*
X254859Y298702D01*
X254524Y299281D01*
X254351Y299927D01*
X254351Y321763D01*
X264393Y321763D01*
X264393Y297721D01*
X256557Y297721D01*
G37*
%LPD*%
%LPC*%
G36*
X98823Y374423D02*
X98823Y374423D01*
X98823Y395356D01*
X100237Y395132D01*
X102114Y394522D01*
X103873Y393626D01*
X105470Y392466D01*
X106866Y391070D01*
X108026Y389473D01*
X108922Y387714D01*
X109532Y385837D01*
X109841Y383887D01*
X109841Y374423D01*
X98823Y374423D01*
G37*
%LPD*%
%LPC*%
G36*
X98823Y371377D02*
X98823Y371377D01*
X109841Y371377D01*
X109841Y361913D01*
X109532Y359963D01*
X108922Y358086D01*
X108026Y356327D01*
X106866Y354730D01*
X105470Y353334D01*
X103873Y352174D01*
X102114Y351278D01*
X100237Y350668D01*
X98823Y350444D01*
X98823Y371377D01*
G37*
%LPD*%
%LPC*%
G36*
X84759Y374423D02*
X84759Y374423D01*
X84759Y383887D01*
X85068Y385837D01*
X85678Y387714D01*
X86574Y389473D01*
X87734Y391070D01*
X89130Y392466D01*
X90727Y393626D01*
X92486Y394522D01*
X94363Y395132D01*
X95777Y395356D01*
X95777Y374423D01*
X84759Y374423D01*
G37*
%LPD*%
%LPC*%
G36*
X94363Y350668D02*
X94363Y350668D01*
X92486Y351278D01*
X90727Y352174D01*
X89130Y353334D01*
X87734Y354730D01*
X86574Y356327D01*
X85678Y358086D01*
X85068Y359963D01*
X84759Y361913D01*
X84759Y371377D01*
X95777Y371377D01*
X95777Y350444D01*
X94363Y350668D01*
G37*
%LPD*%
%LPC*%
G36*
X389863Y58153D02*
X389863Y58153D01*
X389863Y71171D01*
X400674Y71171D01*
X401321Y70998D01*
X401900Y70663D01*
X402373Y70190D01*
X402708Y69611D01*
X402881Y68964D01*
X402881Y58153D01*
X389863Y58153D01*
G37*
%LPD*%
%LPC*%
G36*
X535927Y272725D02*
X535927Y272725D01*
X535927Y285743D01*
X546738Y285743D01*
X547385Y285570D01*
X547964Y285235D01*
X548437Y284762D01*
X548772Y284183D01*
X548945Y283536D01*
X548945Y272725D01*
X535927Y272725D01*
G37*
%LPD*%
%LPC*%
G36*
X535927Y256661D02*
X535927Y256661D01*
X535927Y269679D01*
X548945Y269679D01*
X548945Y258868D01*
X548772Y258221D01*
X548437Y257642D01*
X547964Y257169D01*
X547385Y256834D01*
X546738Y256661D01*
X535927Y256661D01*
G37*
%LPD*%
%LPC*%
G36*
X519863Y272725D02*
X519863Y272725D01*
X519863Y283536D01*
X520036Y284183D01*
X520371Y284762D01*
X520844Y285235D01*
X521423Y285570D01*
X522070Y285743D01*
X532881Y285743D01*
X532881Y272725D01*
X519863Y272725D01*
G37*
%LPD*%
%LPC*%
G36*
X373799Y58153D02*
X373799Y58153D01*
X373799Y68964D01*
X373972Y69611D01*
X374307Y70190D01*
X374780Y70663D01*
X375359Y70998D01*
X376006Y71171D01*
X386817Y71171D01*
X386817Y58153D01*
X373799Y58153D01*
G37*
%LPD*%
%LPC*%
G36*
X389863Y42089D02*
X389863Y42089D01*
X389863Y55107D01*
X402881Y55107D01*
X402881Y44296D01*
X402708Y43649D01*
X402373Y43070D01*
X401900Y42597D01*
X401321Y42262D01*
X400674Y42089D01*
X389863Y42089D01*
G37*
%LPD*%
%LPC*%
G36*
X522070Y256661D02*
X522070Y256661D01*
X521423Y256834D01*
X520844Y257169D01*
X520371Y257642D01*
X520036Y258221D01*
X519863Y258868D01*
X519863Y269679D01*
X532881Y269679D01*
X532881Y256661D01*
X522070Y256661D01*
G37*
%LPD*%
%LPC*%
G36*
X376006Y42089D02*
X376006Y42089D01*
X375359Y42262D01*
X374780Y42597D01*
X374307Y43070D01*
X373972Y43649D01*
X373799Y44296D01*
X373799Y55107D01*
X386817Y55107D01*
X386817Y42089D01*
X376006Y42089D01*
G37*
%LPD*%
%LPC*%
G36*
X434339Y58629D02*
X434339Y58629D01*
X434339Y71171D01*
X444675Y71171D01*
X445321Y70998D01*
X445900Y70663D01*
X446373Y70190D01*
X446708Y69611D01*
X446881Y68965D01*
X446881Y58629D01*
X434339Y58629D01*
G37*
%LPD*%
%LPC*%
G36*
X580403Y273201D02*
X580403Y273201D01*
X580403Y285743D01*
X590739Y285743D01*
X591385Y285570D01*
X591964Y285235D01*
X592437Y284762D01*
X592772Y284183D01*
X592945Y283537D01*
X592945Y273201D01*
X580403Y273201D01*
G37*
%LPD*%
%LPC*%
G36*
X434339Y42089D02*
X434339Y42089D01*
X434339Y54631D01*
X446881Y54631D01*
X446881Y44295D01*
X446708Y43649D01*
X446373Y43070D01*
X445900Y42597D01*
X445321Y42262D01*
X444675Y42089D01*
X434339Y42089D01*
G37*
%LPD*%
%LPC*%
G36*
X580403Y256661D02*
X580403Y256661D01*
X580403Y269203D01*
X592945Y269203D01*
X592945Y258867D01*
X592772Y258221D01*
X592437Y257642D01*
X591964Y257169D01*
X591385Y256834D01*
X590739Y256661D01*
X580403Y256661D01*
G37*
%LPD*%
%LPC*%
G36*
X565123Y129473D02*
X565123Y129473D01*
X565123Y148491D01*
X570434Y148491D01*
X571081Y148318D01*
X571660Y147983D01*
X572133Y147510D01*
X572468Y146931D01*
X572641Y146284D01*
X572641Y129473D01*
X565123Y129473D01*
G37*
%LPD*%
%LPC*%
G36*
X715637Y432509D02*
X715637Y432509D01*
X715637Y451527D01*
X720948Y451527D01*
X721595Y451354D01*
X722174Y451019D01*
X722647Y450546D01*
X722982Y449967D01*
X723155Y449320D01*
X723155Y432509D01*
X715637Y432509D01*
G37*
%LPD*%
%LPC*%
G36*
X565123Y126427D02*
X565123Y126427D01*
X572641Y126427D01*
X572641Y109616D01*
X572468Y108969D01*
X572133Y108390D01*
X571660Y107917D01*
X571081Y107582D01*
X570434Y107409D01*
X565123Y107409D01*
X565123Y126427D01*
G37*
%LPD*%
%LPC*%
G36*
X715637Y429463D02*
X715637Y429463D01*
X723155Y429463D01*
X723155Y412652D01*
X722982Y412005D01*
X722647Y411426D01*
X722174Y410953D01*
X721595Y410618D01*
X720948Y410445D01*
X715637Y410445D01*
X715637Y429463D01*
G37*
%LPD*%
%LPC*%
G36*
X705073Y432509D02*
X705073Y432509D01*
X705073Y449320D01*
X705246Y449967D01*
X705581Y450546D01*
X706054Y451019D01*
X706633Y451354D01*
X707280Y451527D01*
X712591Y451527D01*
X712591Y432509D01*
X705073Y432509D01*
G37*
%LPD*%
%LPC*%
G36*
X554559Y129473D02*
X554559Y129473D01*
X554559Y146284D01*
X554732Y146931D01*
X555067Y147510D01*
X555540Y147983D01*
X556119Y148318D01*
X556766Y148491D01*
X562077Y148491D01*
X562077Y129473D01*
X554559Y129473D01*
G37*
%LPD*%
%LPC*%
G36*
X556766Y107409D02*
X556766Y107409D01*
X556119Y107582D01*
X555540Y107917D01*
X555067Y108390D01*
X554732Y108969D01*
X554559Y109616D01*
X554559Y126427D01*
X562077Y126427D01*
X562077Y107409D01*
X556766Y107409D01*
G37*
%LPD*%
%LPC*%
G36*
X707280Y410445D02*
X707280Y410445D01*
X706633Y410618D01*
X706054Y410953D01*
X705581Y411426D01*
X705246Y412005D01*
X705073Y412652D01*
X705073Y429463D01*
X712591Y429463D01*
X712591Y410445D01*
X707280Y410445D01*
G37*
%LPD*%
%LPC*%
G36*
X716113Y354235D02*
X716113Y354235D01*
X716113Y372777D01*
X720949Y372777D01*
X721595Y372604D01*
X722174Y372269D01*
X722647Y371796D01*
X722982Y371217D01*
X723155Y370571D01*
X723155Y354235D01*
X716113Y354235D01*
G37*
%LPD*%
%LPC*%
G36*
X565599Y208699D02*
X565599Y208699D01*
X565599Y227241D01*
X570435Y227241D01*
X571081Y227068D01*
X571660Y226733D01*
X572133Y226260D01*
X572468Y225681D01*
X572641Y225035D01*
X572641Y208699D01*
X565599Y208699D01*
G37*
%LPD*%
%LPC*%
G36*
X565599Y186159D02*
X565599Y186159D01*
X565599Y204701D01*
X572641Y204701D01*
X572641Y188365D01*
X572468Y187719D01*
X572133Y187140D01*
X571660Y186667D01*
X571081Y186332D01*
X570435Y186159D01*
X565599Y186159D01*
G37*
%LPD*%
%LPC*%
G36*
X716113Y331695D02*
X716113Y331695D01*
X716113Y350237D01*
X723155Y350237D01*
X723155Y333901D01*
X722982Y333255D01*
X722647Y332676D01*
X722174Y332203D01*
X721595Y331868D01*
X720949Y331695D01*
X716113Y331695D01*
G37*
%LPD*%
%LPC*%
G36*
X554559Y208699D02*
X554559Y208699D01*
X554559Y225035D01*
X554732Y225681D01*
X555067Y226260D01*
X555540Y226733D01*
X556119Y227068D01*
X556765Y227241D01*
X561601Y227241D01*
X561601Y208699D01*
X554559Y208699D01*
G37*
%LPD*%
%LPC*%
G36*
X705073Y354235D02*
X705073Y354235D01*
X705073Y370571D01*
X705246Y371217D01*
X705581Y371796D01*
X706054Y372269D01*
X706633Y372604D01*
X707279Y372777D01*
X712115Y372777D01*
X712115Y354235D01*
X705073Y354235D01*
G37*
%LPD*%
%LPC*%
G36*
X707279Y331695D02*
X707279Y331695D01*
X706633Y331868D01*
X706054Y332203D01*
X705581Y332676D01*
X705246Y333255D01*
X705073Y333901D01*
X705073Y350237D01*
X712115Y350237D01*
X712115Y331695D01*
X707279Y331695D01*
G37*
%LPD*%
%LPC*%
G36*
X556765Y186159D02*
X556765Y186159D01*
X556119Y186332D01*
X555540Y186667D01*
X555067Y187140D01*
X554732Y187719D01*
X554559Y188365D01*
X554559Y204701D01*
X561601Y204701D01*
X561601Y186159D01*
X556765Y186159D01*
G37*
%LPD*%
%LPC*%
G36*
X179193Y429151D02*
X179193Y429151D01*
X179193Y439184D01*
X186004Y439184D01*
X186651Y439011D01*
X187230Y438676D01*
X187703Y438203D01*
X188038Y437624D01*
X188211Y436977D01*
X188211Y429151D01*
X179193Y429151D01*
G37*
%LPD*%
%LPC*%
G36*
X179193Y416072D02*
X179193Y416072D01*
X179193Y426105D01*
X188211Y426105D01*
X188211Y418279D01*
X188038Y417632D01*
X187703Y417053D01*
X187230Y416580D01*
X186651Y416245D01*
X186004Y416072D01*
X179193Y416072D01*
G37*
%LPD*%
%LPC*%
G36*
X138689Y429151D02*
X138689Y429151D01*
X138689Y436977D01*
X138862Y437624D01*
X139197Y438203D01*
X139670Y438676D01*
X140249Y439011D01*
X140896Y439184D01*
X147707Y439184D01*
X147707Y429151D01*
X138689Y429151D01*
G37*
%LPD*%
%LPC*%
G36*
X140896Y416072D02*
X140896Y416072D01*
X140249Y416245D01*
X139670Y416580D01*
X139197Y417053D01*
X138862Y417632D01*
X138689Y418279D01*
X138689Y426105D01*
X147707Y426105D01*
X147707Y416072D01*
X140896Y416072D01*
G37*
%LPD*%
%LPC*%
G36*
X805347Y354379D02*
X805347Y354379D01*
X805347Y362921D01*
X812698Y362921D01*
X813344Y362748D01*
X813923Y362413D01*
X814396Y361940D01*
X814731Y361361D01*
X814904Y360715D01*
X814904Y354379D01*
X805347Y354379D01*
G37*
%LPD*%
%LPC*%
G36*
X654239Y217569D02*
X654239Y217569D01*
X654239Y226111D01*
X661590Y226111D01*
X662236Y225938D01*
X662815Y225603D01*
X663288Y225130D01*
X663623Y224551D01*
X663796Y223905D01*
X663796Y217569D01*
X654239Y217569D01*
G37*
%LPD*%
%LPC*%
G36*
X757699Y76119D02*
X757699Y76119D01*
X757699Y84661D01*
X765050Y84661D01*
X765696Y84488D01*
X766275Y84153D01*
X766748Y83680D01*
X767083Y83101D01*
X767256Y82455D01*
X767256Y76119D01*
X757699Y76119D01*
G37*
%LPD*%
%LPC*%
G36*
X791792Y354379D02*
X791792Y354379D01*
X791792Y360715D01*
X791965Y361361D01*
X792300Y361940D01*
X792773Y362413D01*
X793352Y362748D01*
X793998Y362921D01*
X801349Y362921D01*
X801349Y354379D01*
X791792Y354379D01*
G37*
%LPD*%
%LPC*%
G36*
X640684Y217569D02*
X640684Y217569D01*
X640684Y223905D01*
X640857Y224551D01*
X641192Y225130D01*
X641665Y225603D01*
X642244Y225938D01*
X642890Y226111D01*
X650241Y226111D01*
X650241Y217569D01*
X640684Y217569D01*
G37*
%LPD*%
%LPC*%
G36*
X744144Y76119D02*
X744144Y76119D01*
X744144Y82455D01*
X744317Y83101D01*
X744652Y83680D01*
X745125Y84153D01*
X745704Y84488D01*
X746350Y84661D01*
X753701Y84661D01*
X753701Y76119D01*
X744144Y76119D01*
G37*
%LPD*%
%LPC*%
G36*
X757699Y63579D02*
X757699Y63579D01*
X757699Y72121D01*
X767256Y72121D01*
X767256Y65785D01*
X767083Y65139D01*
X766748Y64560D01*
X766275Y64087D01*
X765696Y63752D01*
X765050Y63579D01*
X757699Y63579D01*
G37*
%LPD*%
%LPC*%
G36*
X654239Y205029D02*
X654239Y205029D01*
X654239Y213571D01*
X663796Y213571D01*
X663796Y207235D01*
X663623Y206589D01*
X663288Y206010D01*
X662815Y205537D01*
X662236Y205202D01*
X661590Y205029D01*
X654239Y205029D01*
G37*
%LPD*%
%LPC*%
G36*
X805347Y341839D02*
X805347Y341839D01*
X805347Y350381D01*
X814904Y350381D01*
X814904Y344045D01*
X814731Y343399D01*
X814396Y342820D01*
X813923Y342347D01*
X813344Y342012D01*
X812698Y341839D01*
X805347Y341839D01*
G37*
%LPD*%
%LPC*%
G36*
X793998Y341839D02*
X793998Y341839D01*
X793352Y342012D01*
X792773Y342347D01*
X792300Y342820D01*
X791965Y343399D01*
X791792Y344045D01*
X791792Y350381D01*
X801349Y350381D01*
X801349Y341839D01*
X793998Y341839D01*
G37*
%LPD*%
%LPC*%
G36*
X746350Y63579D02*
X746350Y63579D01*
X745704Y63752D01*
X745125Y64087D01*
X744652Y64560D01*
X744317Y65139D01*
X744144Y65785D01*
X744144Y72121D01*
X753701Y72121D01*
X753701Y63579D01*
X746350Y63579D01*
G37*
%LPD*%
%LPC*%
G36*
X642890Y205029D02*
X642890Y205029D01*
X642244Y205202D01*
X641665Y205537D01*
X641192Y206010D01*
X640857Y206589D01*
X640684Y207235D01*
X640684Y213571D01*
X650241Y213571D01*
X650241Y205029D01*
X642890Y205029D01*
G37*
%LPD*%
%LPC*%
G36*
X368489Y326711D02*
X368489Y326711D01*
X368489Y336317D01*
X368662Y336964D01*
X368997Y337543D01*
X369470Y338016D01*
X370049Y338351D01*
X370696Y338524D01*
X374841Y338524D01*
X374841Y326711D01*
X368489Y326711D01*
G37*
%LPD*%
%LPC*%
G36*
X224191Y92995D02*
X224191Y92995D01*
X224191Y102601D01*
X224364Y103248D01*
X224699Y103827D01*
X225172Y104300D01*
X225751Y104635D01*
X226398Y104808D01*
X230543Y104808D01*
X230543Y92995D01*
X224191Y92995D01*
G37*
%LPD*%
%LPC*%
G36*
X370696Y311852D02*
X370696Y311852D01*
X370049Y312025D01*
X369470Y312360D01*
X368997Y312833D01*
X368662Y313412D01*
X368489Y314059D01*
X368489Y323665D01*
X374841Y323665D01*
X374841Y311852D01*
X370696Y311852D01*
G37*
%LPD*%
%LPC*%
G36*
X226398Y78136D02*
X226398Y78136D01*
X225751Y78309D01*
X225172Y78644D01*
X224699Y79117D01*
X224364Y79696D01*
X224191Y80343D01*
X224191Y89949D01*
X230543Y89949D01*
X230543Y78136D01*
X226398Y78136D01*
G37*
%LPD*%
%LPC*%
G36*
X804723Y433623D02*
X804723Y433623D01*
X804723Y441141D01*
X811034Y441141D01*
X811681Y440968D01*
X812260Y440633D01*
X812733Y440160D01*
X813068Y439581D01*
X813241Y438934D01*
X813241Y433623D01*
X804723Y433623D01*
G37*
%LPD*%
%LPC*%
G36*
X172771Y326995D02*
X172771Y326995D01*
X172771Y334513D01*
X179082Y334513D01*
X179729Y334340D01*
X180308Y334005D01*
X180781Y333532D01*
X181116Y332953D01*
X181289Y332306D01*
X181289Y326995D01*
X172771Y326995D01*
G37*
%LPD*%
%LPC*%
G36*
X134919Y326371D02*
X134919Y326371D01*
X134919Y333889D01*
X141230Y333889D01*
X141877Y333716D01*
X142456Y333381D01*
X142929Y332908D01*
X143264Y332329D01*
X143437Y331682D01*
X143437Y326371D01*
X134919Y326371D01*
G37*
%LPD*%
%LPC*%
G36*
X123355Y326371D02*
X123355Y326371D01*
X123355Y331682D01*
X123528Y332329D01*
X123863Y332908D01*
X124336Y333381D01*
X124915Y333716D01*
X125562Y333889D01*
X131873Y333889D01*
X131873Y326371D01*
X123355Y326371D01*
G37*
%LPD*%
%LPC*%
G36*
X161207Y326995D02*
X161207Y326995D01*
X161207Y332306D01*
X161380Y332953D01*
X161715Y333532D01*
X162188Y334005D01*
X162767Y334340D01*
X163414Y334513D01*
X169725Y334513D01*
X169725Y326995D01*
X161207Y326995D01*
G37*
%LPD*%
%LPC*%
G36*
X793159Y433623D02*
X793159Y433623D01*
X793159Y438934D01*
X793332Y439581D01*
X793667Y440160D01*
X794140Y440633D01*
X794719Y440968D01*
X795366Y441141D01*
X801677Y441141D01*
X801677Y433623D01*
X793159Y433623D01*
G37*
%LPD*%
%LPC*%
G36*
X653911Y112057D02*
X653911Y112057D01*
X653911Y119575D01*
X662429Y119575D01*
X662429Y114264D01*
X662256Y113617D01*
X661921Y113038D01*
X661448Y112565D01*
X660869Y112230D01*
X660222Y112057D01*
X653911Y112057D01*
G37*
%LPD*%
%LPC*%
G36*
X644554Y112057D02*
X644554Y112057D01*
X643907Y112230D01*
X643328Y112565D01*
X642855Y113038D01*
X642520Y113617D01*
X642347Y114264D01*
X642347Y119575D01*
X650865Y119575D01*
X650865Y112057D01*
X644554Y112057D01*
G37*
%LPD*%
%LPC*%
G36*
X719999Y84799D02*
X719999Y84799D01*
X719999Y90341D01*
X726335Y90341D01*
X726981Y90168D01*
X727560Y89833D01*
X728033Y89360D01*
X728368Y88781D01*
X728541Y88135D01*
X728541Y84799D01*
X719999Y84799D01*
G37*
%LPD*%
%LPC*%
G36*
X707459Y84799D02*
X707459Y84799D01*
X707459Y88135D01*
X707632Y88781D01*
X707967Y89360D01*
X708440Y89833D01*
X709019Y90168D01*
X709665Y90341D01*
X716001Y90341D01*
X716001Y84799D01*
X707459Y84799D01*
G37*
%LPD*%
%LPC*%
G36*
X719999Y75259D02*
X719999Y75259D01*
X719999Y80801D01*
X728541Y80801D01*
X728541Y77465D01*
X728368Y76819D01*
X728033Y76240D01*
X727560Y75767D01*
X726981Y75432D01*
X726335Y75259D01*
X719999Y75259D01*
G37*
%LPD*%
%LPC*%
G36*
X709665Y75259D02*
X709665Y75259D01*
X709019Y75432D01*
X708440Y75767D01*
X707967Y76240D01*
X707632Y76819D01*
X707459Y77465D01*
X707459Y80801D01*
X716001Y80801D01*
X716001Y75259D01*
X709665Y75259D01*
G37*
%LPD*%
%LPC*%
G36*
X97299Y372899D02*
X97299Y372899D01*
X97299Y372901D01*
X97301Y372901D01*
X97301Y372899D01*
X97299Y372899D01*
G37*
%LPD*%
%LPC*%
G36*
X266391Y323761D02*
X266391Y323761D01*
X266391Y323763D01*
X266393Y323763D01*
X266393Y323761D01*
X266391Y323761D01*
G37*
%LPD*%
%LPC*%
G36*
X534403Y271201D02*
X534403Y271201D01*
X534403Y271203D01*
X534405Y271203D01*
X534405Y271201D01*
X534403Y271201D01*
G37*
%LPD*%
%LPC*%
G36*
X461759Y164523D02*
X461759Y164523D01*
X461759Y164525D01*
X461761Y164525D01*
X461761Y164523D01*
X461759Y164523D01*
G37*
%LPD*%
%LPC*%
G36*
X803347Y352379D02*
X803347Y352379D01*
X803347Y352381D01*
X803349Y352381D01*
X803349Y352379D01*
X803347Y352379D01*
G37*
%LPD*%
%LPC*%
G36*
X563599Y127949D02*
X563599Y127949D01*
X563599Y127951D01*
X563601Y127951D01*
X563601Y127949D01*
X563599Y127949D01*
G37*
%LPD*%
%LPC*%
G36*
X614299Y390799D02*
X614299Y390799D01*
X614299Y390801D01*
X614301Y390801D01*
X614301Y390799D01*
X614299Y390799D01*
G37*
%LPD*%
%LPC*%
G36*
X563599Y206699D02*
X563599Y206699D01*
X563599Y206701D01*
X563601Y206701D01*
X563601Y206699D01*
X563599Y206699D01*
G37*
%LPD*%
%LPC*%
G36*
X372759Y164523D02*
X372759Y164523D01*
X372759Y164525D01*
X372761Y164525D01*
X372761Y164523D01*
X372759Y164523D01*
G37*
%LPD*%
%LPC*%
G36*
X717999Y82799D02*
X717999Y82799D01*
X717999Y82801D01*
X718001Y82801D01*
X718001Y82799D01*
X717999Y82799D01*
G37*
%LPD*%
%LPC*%
G36*
X755699Y74119D02*
X755699Y74119D01*
X755699Y74121D01*
X755701Y74121D01*
X755701Y74119D01*
X755699Y74119D01*
G37*
%LPD*%
%LPC*%
G36*
X525299Y390799D02*
X525299Y390799D01*
X525299Y390801D01*
X525301Y390801D01*
X525301Y390799D01*
X525299Y390799D01*
G37*
%LPD*%
%LPC*%
G36*
X266391Y413761D02*
X266391Y413761D01*
X266391Y413763D01*
X266393Y413763D01*
X266393Y413761D01*
X266391Y413761D01*
G37*
%LPD*%
%LPC*%
G36*
X714113Y352235D02*
X714113Y352235D01*
X714113Y352237D01*
X714115Y352237D01*
X714115Y352235D01*
X714113Y352235D01*
G37*
%LPD*%
%LPC*%
G36*
X388339Y56629D02*
X388339Y56629D01*
X388339Y56631D01*
X388341Y56631D01*
X388341Y56629D01*
X388339Y56629D01*
G37*
%LPD*%
%LPC*%
G36*
X652239Y215569D02*
X652239Y215569D01*
X652239Y215571D01*
X652241Y215571D01*
X652241Y215569D01*
X652239Y215569D01*
G37*
%LPD*%
%LPC*%
G36*
X714113Y430985D02*
X714113Y430985D01*
X714113Y430987D01*
X714115Y430987D01*
X714115Y430985D01*
X714113Y430985D01*
G37*
%LPD*%
D10*
X410400Y408500D03*
D11*
X376364Y325188D03*
X393382Y325188D03*
X410400Y325188D03*
X427418Y325188D03*
X444436Y325188D03*
D10*
X266102Y174784D03*
D11*
X232066Y91472D03*
X249084Y91472D03*
X266102Y91472D03*
X283120Y91472D03*
X300138Y91472D03*
D12*
X266392Y323762D03*
X266392Y413762D03*
D13*
X563600Y206700D03*
X563600Y127950D03*
X714114Y352236D03*
X714114Y430986D03*
D14*
X738150Y246094D02*
X738150Y230854D01*
X763550Y230854D02*
X763550Y246094D01*
X788950Y246094D02*
X788950Y230854D01*
X814350Y230854D02*
X814350Y246094D01*
X839750Y246094D02*
X839750Y230854D01*
X865150Y230854D02*
X865150Y246094D01*
D15*
X149230Y427628D03*
X177670Y427628D03*
D16*
X97300Y382900D02*
X97300Y362900D01*
X36300Y362900D02*
X36300Y382900D01*
X56300Y324900D02*
X76300Y324900D01*
D17*
X803348Y380820D03*
X803348Y352380D03*
X652240Y187130D03*
X652240Y215570D03*
D15*
X164292Y279032D03*
X135852Y279032D03*
D18*
X836850Y90134D03*
X836850Y28666D03*
X824150Y90134D03*
X811450Y90134D03*
X824150Y28666D03*
X811450Y28666D03*
X798750Y90134D03*
X798750Y28666D03*
D19*
X898100Y54364D03*
X915100Y54364D03*
D17*
X755700Y74120D03*
X755700Y45680D03*
D20*
X652388Y140098D03*
X652388Y121098D03*
X803200Y413100D03*
X803200Y432100D03*
X171248Y306472D03*
X171248Y325472D03*
D21*
X388340Y56630D03*
X432340Y56630D03*
X534404Y271202D03*
X578404Y271202D03*
D22*
X1563600Y232460D03*
X1601400Y182110D03*
X1601400Y288810D03*
X1639400Y210060D03*
X1639400Y260860D03*
D23*
X1431200Y218300D03*
X1431200Y227800D03*
X1431200Y237300D03*
X1405200Y237300D03*
X1405200Y218300D03*
D24*
X1523126Y377404D03*
X1510126Y377404D03*
D14*
X1393056Y44480D02*
X1393056Y29240D01*
X1367656Y29240D02*
X1367656Y44480D01*
X1342256Y44480D02*
X1342256Y29240D01*
X1316856Y29240D02*
X1316856Y44480D01*
X1291456Y44480D02*
X1291456Y29240D01*
X1266056Y29240D02*
X1266056Y44480D01*
X1240656Y44480D02*
X1240656Y29240D01*
X1215256Y29240D02*
X1215256Y44480D01*
D15*
X1264954Y75268D03*
X1236514Y75268D03*
X1367502Y153332D03*
X1395942Y153332D03*
D25*
X372760Y164524D03*
X461760Y164524D03*
X525300Y390800D03*
X614300Y390800D03*
D18*
X1319050Y250734D03*
X1319050Y189266D03*
X1306350Y250734D03*
X1293650Y250734D03*
X1306350Y189266D03*
X1293650Y189266D03*
X1280950Y250734D03*
X1280950Y189266D03*
D26*
X1290500Y290000D03*
X1309500Y290000D03*
D27*
X1037600Y120500D02*
X1037600Y105500D01*
X1063000Y105500D02*
X1063000Y120500D01*
X1088400Y120500D02*
X1088400Y105500D01*
X1113800Y105500D02*
X1113800Y120500D01*
X1139200Y120500D02*
X1139200Y105500D01*
X1164600Y105500D02*
X1164600Y120500D01*
X1190000Y120500D02*
X1190000Y105500D01*
X1215400Y105500D02*
X1215400Y120500D01*
X1240800Y120500D02*
X1240800Y105500D01*
X1266200Y105500D02*
X1266200Y120500D01*
X1291600Y120500D02*
X1291600Y105500D01*
X1317000Y105500D02*
X1317000Y120500D01*
X1342400Y120500D02*
X1342400Y105500D01*
X1367800Y105500D02*
X1367800Y120500D01*
X1393200Y120500D02*
X1393200Y105500D01*
X1037600Y359500D02*
X1037600Y374500D01*
X1063000Y374500D02*
X1063000Y359500D01*
X1088400Y359500D02*
X1088400Y374500D01*
X1113800Y374500D02*
X1113800Y359500D01*
X1139200Y359500D02*
X1139200Y374500D01*
X1164600Y374500D02*
X1164600Y359500D01*
X1190000Y359500D02*
X1190000Y374500D01*
X1215400Y374500D02*
X1215400Y359500D01*
X1240800Y359500D02*
X1240800Y374500D01*
X1266200Y374500D02*
X1266200Y359500D01*
X1291600Y359500D02*
X1291600Y374500D01*
X1317000Y374500D02*
X1317000Y359500D01*
X1342400Y359500D02*
X1342400Y374500D01*
X1367800Y374500D02*
X1367800Y359500D01*
X1393200Y359500D02*
X1393200Y374500D01*
D28*
X532500Y49000D03*
X567500Y49000D03*
X1282500Y449000D03*
X1317500Y449000D03*
D14*
X1110948Y464186D02*
X1095708Y464186D01*
X1095708Y418974D02*
X1110948Y418974D01*
X1160732Y464186D02*
X1175972Y464186D01*
X1175972Y418974D02*
X1160732Y418974D01*
D28*
X1002500Y449000D03*
X1037500Y449000D03*
X61602Y205078D03*
X61602Y240078D03*
D20*
X133396Y305848D03*
X133396Y324848D03*
D15*
X1435780Y430000D03*
X1464220Y430000D03*
D26*
X1399500Y430000D03*
X1380500Y430000D03*
D15*
X1435780Y470000D03*
X1464220Y470000D03*
D26*
X1399500Y470000D03*
X1380500Y470000D03*
D29*
X645000Y60000D03*
D30*
X718000Y37200D03*
X718000Y82800D03*
D31*
X1218370Y466060D03*
X1218370Y422060D03*
D28*
X1562510Y447950D03*
X1597510Y447950D03*
D14*
X1529980Y35610D02*
X1529980Y20370D01*
X1555380Y20370D02*
X1555380Y35610D01*
X1580780Y35610D02*
X1580780Y20370D01*
D32*
X952754Y276098D03*
D33*
X941578Y287274D01*
X927608Y287274D01*
D32*
X927608Y287274D03*
X275000Y260000D03*
X275000Y270000D03*
X265000Y270000D03*
X255000Y270000D03*
X255000Y260000D03*
X265000Y260000D03*
X255000Y280000D03*
X265000Y280000D03*
X275000Y280000D03*
X440000Y280000D03*
X440000Y290000D03*
X430000Y290000D03*
X420000Y290000D03*
X420000Y280000D03*
X430000Y280000D03*
X420000Y300000D03*
X430000Y300000D03*
X440000Y300000D03*
D34*
X410400Y300000D02*
X410400Y325188D01*
X410400Y300000D02*
X420000Y300000D01*
X440000Y300000D01*
X440000Y280000D01*
X420000Y280000D01*
X420000Y290000D01*
X430000Y290000D01*
X444436Y300000D02*
X444436Y325188D01*
X444436Y300000D02*
X440000Y300000D01*
X420000Y300000D02*
X420000Y290000D01*
X430000Y290000D02*
X430000Y300000D01*
X430000Y290000D02*
X440000Y290000D01*
D32*
X295000Y45000D03*
X295000Y55000D03*
X285000Y55000D03*
X275000Y55000D03*
X275000Y45000D03*
X285000Y45000D03*
X275000Y65000D03*
X285000Y65000D03*
X295000Y65000D03*
X630000Y260000D03*
X630000Y270000D03*
X620000Y270000D03*
X610000Y270000D03*
X610000Y260000D03*
X620000Y260000D03*
X610000Y280000D03*
X620000Y280000D03*
X630000Y280000D03*
D34*
X266102Y91472D02*
X266102Y65000D01*
X275000Y65000D01*
X295000Y65000D02*
X300138Y65000D01*
X300138Y91472D01*
X285000Y65000D02*
X275000Y65000D01*
X285000Y65000D02*
X285000Y45000D01*
X275000Y45000D01*
X285000Y65000D02*
X295000Y65000D01*
X295000Y45000D02*
X275000Y45000D01*
X275000Y55000D01*
X295000Y55000D01*
X295000Y45000D01*
X295000Y65000D01*
X275000Y65000D02*
X275000Y45000D01*
D32*
X485000Y45000D03*
X485000Y55000D03*
X475000Y55000D03*
X465000Y55000D03*
X465000Y45000D03*
X475000Y45000D03*
X465000Y65000D03*
X475000Y65000D03*
X485000Y65000D03*
D33*
X66300Y318700D02*
X66300Y324900D01*
X105968Y279032D02*
X135852Y279032D01*
X105968Y279032D02*
X66300Y318700D01*
X1310000Y290000D02*
X1320000Y280000D01*
X1320000Y255000D01*
X1310000Y290000D02*
X1309500Y290000D01*
X1320000Y255000D02*
X1319050Y250734D01*
X1465000Y429730D02*
X1465000Y430000D01*
X1465000Y450000D01*
X1465000Y470000D01*
X1464220Y470000D01*
X1464220Y430000D02*
X1465000Y430000D01*
X1335000Y280000D02*
X1320000Y280000D01*
X1335000Y280000D02*
X1464450Y409450D01*
X1464450Y425550D01*
X1167498Y465000D02*
X1106250Y465000D01*
X1104182Y465000D02*
X1103328Y464186D01*
X1167498Y465000D02*
X1168352Y464186D01*
X1060000Y390000D02*
X1060000Y370000D01*
X1060000Y390000D02*
X1005000Y445000D01*
X1060000Y370000D02*
X1063000Y367000D01*
X1005000Y445000D02*
X1002500Y449000D01*
X1020000Y465000D02*
X1102482Y465000D01*
X1020000Y465000D02*
X1005000Y450000D01*
X1102482Y465000D02*
X1103328Y464186D01*
X1005000Y450000D02*
X1002500Y449000D01*
X788945Y238476D02*
X763552Y238476D01*
X765000Y240000D01*
X763552Y238476D02*
X763550Y238474D01*
X788945Y238476D02*
X788950Y238474D01*
X829412Y299906D02*
X829412Y326684D01*
X1365000Y35000D02*
X1365000Y30000D01*
X1350000Y15000D01*
X855000Y15000D01*
X1365000Y35000D02*
X1367656Y36860D01*
X910000Y110000D02*
X905428Y105428D01*
X849920Y105428D01*
X790094Y238474D02*
X788950Y238474D01*
X790094Y238474D02*
X790094Y260588D01*
X829412Y299906D02*
X829666Y300160D01*
X829412Y299906D02*
X790094Y260588D01*
X1060000Y110000D02*
X1060000Y105000D01*
X1038904Y83904D01*
X931016Y83904D01*
X910000Y104920D02*
X910000Y110000D01*
X910000Y104920D02*
X931016Y83904D01*
X1060000Y110000D02*
X1063000Y113000D01*
X1305000Y290000D02*
X1305000Y300000D01*
X1260000Y345000D01*
X1080000Y345000D01*
X1060000Y365000D01*
X1305000Y290000D02*
X1309500Y290000D01*
X1063000Y367000D02*
X1060000Y365000D01*
D32*
X910000Y110000D03*
X737108Y205740D03*
D33*
X765000Y233632D01*
X765000Y240000D01*
X829666Y270425D02*
X829666Y300160D01*
X839750Y260341D02*
X839750Y238474D01*
X839750Y260341D02*
X829666Y270425D01*
X1431200Y227800D02*
X1431670Y227330D01*
X1453642Y227330D01*
D32*
X1453642Y227330D03*
X1373378Y256286D03*
D33*
X1343406Y256286D01*
X1337056Y249936D01*
X1319848Y249936D01*
X1319050Y250734D01*
X1216496Y464186D02*
X1168352Y464186D01*
X1216496Y464186D02*
X1218370Y466060D01*
X1106250Y465000D02*
X1103328Y464186D01*
X1460000Y430000D02*
X1464450Y425550D01*
X1510000Y380000D01*
X1510126Y377404D01*
X1464220Y430000D02*
X1460000Y430000D01*
X1465000Y450000D02*
X1560000Y450000D01*
X1562510Y447950D01*
X1529980Y27990D02*
X1480620Y27990D01*
X1455280Y2650D01*
X1385420Y2650D01*
X1367656Y20414D02*
X1367656Y36860D01*
X1367656Y20414D02*
X1385420Y2650D01*
X895000Y55000D02*
X880000Y55000D01*
X840000Y95000D01*
X895000Y55000D02*
X898100Y54364D01*
X840000Y95000D02*
X836850Y90134D01*
X920000Y55000D02*
X1060000Y55000D01*
X1095000Y90000D01*
X1195000Y90000D01*
X1215000Y110000D01*
X920000Y55000D02*
X915100Y54364D01*
X1215000Y110000D02*
X1215400Y113000D01*
X715000Y50000D02*
X715000Y40000D01*
X715000Y50000D02*
X720000Y55000D01*
X730000Y55000D01*
X740000Y45000D01*
X755000Y45000D01*
X755700Y45680D01*
X825000Y40000D02*
X825000Y30000D01*
X825000Y40000D02*
X820000Y45000D01*
X825000Y50000D01*
X820000Y55000D01*
X785000Y55000D01*
X775000Y45000D01*
X760000Y45000D01*
X824150Y28666D02*
X825000Y30000D01*
X760000Y45000D02*
X755700Y45680D01*
X718000Y37200D02*
X717500Y37500D01*
X715000Y40000D01*
X585000Y65000D02*
X570000Y50000D01*
X585000Y65000D02*
X635000Y65000D01*
X640000Y60000D01*
X570000Y50000D02*
X567500Y49000D01*
X640000Y60000D02*
X645000Y60000D01*
D34*
X532500Y49000D02*
X532500Y32500D01*
X527500Y27500D01*
X511444Y11444D01*
X252954Y11444D01*
X232112Y32286D01*
X232112Y91426D02*
X232066Y91472D01*
X232112Y91426D02*
X232112Y32286D01*
D33*
X840000Y25000D02*
X840000Y10000D01*
X835000Y5000D01*
X790000Y5000D01*
X780000Y15000D01*
X540000Y15000D01*
X527500Y27500D01*
X836850Y28666D02*
X840000Y25000D01*
X805000Y385000D02*
X805000Y410000D01*
X803200Y413100D01*
X805000Y385000D02*
X803348Y380820D01*
X650000Y185000D02*
X650000Y145000D01*
X652388Y140098D01*
X650000Y185000D02*
X652240Y187130D01*
X164292Y279032D02*
X164292Y294292D01*
X164292Y299516D02*
X164292Y279032D01*
X164292Y299516D02*
X171248Y306472D01*
X283120Y107860D02*
X283120Y91472D01*
X283120Y107860D02*
X288544Y113284D01*
X323342Y113284D01*
X333248Y123190D01*
X333248Y194564D01*
X341884Y203200D01*
X406400Y203200D01*
X422148Y187452D01*
X422148Y174244D01*
X431868Y164524D01*
X461760Y164524D01*
X1236514Y75268D02*
X1236514Y68580D01*
X1245094Y60000D01*
X1300000Y60000D01*
X1400000Y135000D02*
X1400000Y150000D01*
X1400000Y135000D02*
X1410000Y125000D01*
X1410000Y55000D01*
X1395000Y40000D01*
X1400000Y150000D02*
X1395942Y153332D01*
X1395000Y40000D02*
X1393056Y36860D01*
X1584572Y210000D02*
X1635000Y210000D01*
X1584572Y210000D02*
X1529572Y155000D01*
X1400000Y155000D01*
X1635000Y210000D02*
X1639400Y210060D01*
X1400000Y155000D02*
X1395942Y153332D01*
X815334Y237490D02*
X814350Y238474D01*
X815334Y237490D02*
X815334Y235080D01*
X703476Y123222D01*
X675000Y123222D02*
X656712Y123222D01*
X675000Y123222D02*
X703476Y123222D01*
X1290000Y275000D02*
X1290000Y290000D01*
X1290000Y275000D02*
X1280000Y265000D01*
X1280000Y255000D01*
X1290000Y290000D02*
X1290500Y290000D01*
X1280000Y255000D02*
X1280950Y250734D01*
X992940Y198716D02*
X966270Y198716D01*
X1276096Y255588D02*
X1280950Y250734D01*
X1276096Y255588D02*
X1191070Y255588D01*
X1037600Y113000D02*
X1037153Y113343D01*
X886538Y118984D02*
X663750Y118984D01*
X657474Y118984D01*
X886538Y118984D02*
X966270Y198716D01*
X1100000Y80000D02*
X1235000Y80000D01*
X1236514Y75268D01*
D32*
X1300000Y60000D03*
X1100000Y80000D03*
D33*
X1037600Y113000D02*
X1037600Y114298D01*
X1037600Y154056D02*
X992940Y198716D01*
X1037600Y154056D02*
X1037600Y113000D01*
X1037600Y118628D01*
X1134110Y215138D02*
X1150620Y215138D01*
X1191070Y255588D01*
X1134110Y215138D02*
X1037600Y118628D01*
X675000Y123222D02*
X675000Y123750D01*
X663750Y118984D02*
X663750Y117500D01*
X427418Y325188D02*
X427418Y345376D01*
X429768Y347726D01*
X472948Y347726D01*
X482600Y357378D02*
X482600Y421132D01*
X488442Y426974D01*
X575056Y417068D02*
X575056Y399542D01*
X583438Y391160D01*
X609092Y391160D01*
X482600Y357378D02*
X472948Y347726D01*
X488442Y426974D02*
X565150Y426974D01*
X575056Y417068D01*
X756016Y148984D02*
X868984Y148984D01*
X756016Y148984D02*
X755000Y150000D01*
X868984Y148984D02*
X870000Y150000D01*
X1079144Y240000D02*
X1145000Y240000D01*
X970000Y240000D02*
X880000Y150000D01*
X870000Y150000D01*
X1315000Y220000D02*
X1335580Y220000D01*
X1405000Y220000D01*
X1315000Y220000D02*
X1300000Y205000D01*
X1215000Y205000D01*
X1180000Y170000D01*
X1405200Y218300D02*
X1405000Y220000D01*
X997940Y279652D02*
X845492Y432100D01*
X997940Y279652D02*
X1039492Y279652D01*
X1079144Y240000D01*
D32*
X755000Y150000D03*
X870000Y150000D03*
X1145000Y240000D03*
X1180000Y170000D03*
D33*
X845492Y432100D02*
X803200Y432100D01*
X970000Y240000D02*
X1079144Y240000D01*
X1580780Y98240D02*
X1580780Y27990D01*
X1541410Y137610D02*
X1446980Y137610D01*
D32*
X1446980Y137610D03*
X1431490Y187130D03*
D33*
X1368450Y187130D01*
X1335580Y220000D01*
X1541410Y137610D02*
X1580780Y98240D01*
X1523129Y237714D02*
X1431783Y237714D01*
X1431200Y237300D01*
X1530576Y232460D02*
X1563600Y232460D01*
X1530576Y232460D02*
X1523129Y237714D01*
X1411668Y237300D02*
X1405200Y237300D01*
X1417066Y231902D02*
X1417066Y223266D01*
X1422032Y218300D01*
X1431200Y218300D01*
X1417066Y231902D02*
X1411668Y237300D01*
X1405000Y240000D02*
X1405000Y300000D01*
X1335000Y320000D02*
X1290000Y365000D01*
X1405000Y240000D02*
X1405200Y237300D01*
X1290000Y365000D02*
X1291600Y367000D01*
D32*
X1405000Y300000D03*
X1335000Y320000D03*
D33*
X1639400Y346190D02*
X1639400Y260860D01*
X1608186Y377404D02*
X1523126Y377404D01*
X1608186Y377404D02*
X1639400Y346190D01*
X1291600Y113000D02*
X1291600Y90000D01*
X1291600Y87112D01*
X1316856Y61856D02*
X1316856Y36860D01*
X1316856Y61856D02*
X1291600Y87112D01*
X1280000Y80000D02*
X1265000Y80000D01*
X1280000Y80000D02*
X1290000Y90000D01*
X1265000Y80000D02*
X1264954Y75268D01*
X1290000Y90000D02*
X1291600Y90000D01*
X1342256Y55746D02*
X1342256Y36860D01*
X1367800Y81290D02*
X1367800Y113000D01*
X1367800Y81290D02*
X1342256Y55746D01*
X1370000Y115000D02*
X1370000Y150000D01*
X1367502Y153332D01*
X1370000Y115000D02*
X1367800Y113000D01*
X1280000Y155000D02*
X1280000Y185000D01*
X1280000Y155000D02*
X1240000Y115000D01*
X1280000Y185000D02*
X1280950Y189266D01*
X1240000Y115000D02*
X1240800Y113000D01*
X1305000Y180000D02*
X1305000Y185000D01*
X1305000Y180000D02*
X1350000Y135000D01*
X1305000Y185000D02*
X1306350Y189266D01*
D32*
X1350000Y135000D03*
D33*
X1292500Y171250D02*
X1292500Y188750D01*
X1258750Y225000D02*
X1240000Y225000D01*
X1220000Y245000D01*
X1292500Y188750D02*
X1293650Y189266D01*
D32*
X1292500Y171250D03*
X1258750Y225000D03*
X1220000Y245000D03*
D33*
X1305000Y240000D02*
X1305000Y250000D01*
X1305000Y240000D02*
X1300000Y235000D01*
X1245000Y235000D01*
X1240000Y240000D01*
X1305000Y250000D02*
X1306350Y250734D01*
D32*
X1240000Y240000D03*
D33*
X1295000Y255000D02*
X1295000Y265000D01*
X1300000Y270000D01*
X1310000Y270000D01*
X1340000Y270000D02*
X1410000Y340000D01*
X1295000Y255000D02*
X1293650Y250734D01*
D32*
X1310000Y270000D03*
X1340000Y270000D03*
X1410000Y340000D03*
D33*
X1167363Y420000D02*
X1106250Y420000D01*
X1104317Y420000D02*
X1103328Y418974D01*
X1167363Y420000D02*
X1168352Y418974D01*
X1078480Y445000D02*
X1040000Y445000D01*
X1037500Y449000D01*
X1078480Y445000D02*
X1103328Y418974D01*
X1168352Y418974D02*
X1171438Y422060D01*
X1218370Y422060D01*
X1106250Y420000D02*
X1103328Y418974D01*
X131366Y240078D02*
X61602Y240078D01*
X131366Y240078D02*
X149352Y258064D01*
X141703Y305848D02*
X133396Y305848D01*
X141703Y305848D02*
X149352Y298199D01*
X149352Y258064D01*
X1399500Y430000D02*
X1435780Y430000D01*
X1440000Y430000D02*
X1440000Y445000D01*
X1450000Y455000D01*
X1450000Y493510D01*
X1551490Y493510D01*
X1595000Y450000D01*
X1440000Y430000D02*
X1435780Y430000D01*
X1595000Y450000D02*
X1597510Y447950D01*
X1435780Y470000D02*
X1399500Y470000D01*
X1740000Y510000D02*
X-20000Y510000D01*
X1740000Y510000D02*
X1740000Y-20000D01*
X-20000Y-20000D01*
X-20000Y510000D01*
X1360000Y430000D02*
X1380000Y430000D01*
X1360000Y430000D02*
X1300000Y490000D01*
X1020000Y490000D01*
X985000Y455000D01*
X985000Y390000D01*
X1125000Y250000D01*
X1150000Y250000D01*
X1155000Y245000D01*
X1155000Y235000D01*
X1150000Y230000D01*
X1135000Y230000D01*
X1380000Y430000D02*
X1380500Y430000D01*
D32*
X1135000Y230000D03*
D33*
X1380000Y470000D02*
X1380500Y470000D01*
X1385000Y470000D02*
X1385000Y445000D01*
X1450000Y380000D02*
X1450000Y360000D01*
X1385000Y295000D01*
X1385000Y250000D01*
X1365000Y230000D01*
X1310000Y230000D01*
X1295000Y215000D01*
X1185000Y215000D01*
X1085000Y115000D01*
X1380500Y470000D02*
X1385000Y470000D01*
X1088400Y113000D02*
X1085000Y115000D01*
D32*
X1385000Y445000D03*
X1450000Y380000D03*
X1354910Y317020D03*
D33*
X1278600Y354600D02*
X1266200Y367000D01*
X1278600Y354600D02*
X1278600Y354115D01*
X1346162Y317020D02*
X1354910Y317020D01*
X1346162Y317020D02*
X1339142Y310000D01*
X1322715Y310000D02*
X1278600Y354115D01*
X1322715Y310000D02*
X1339142Y310000D01*
D32*
X1480960Y309990D03*
D33*
X1482850Y308100D01*
X1482850Y255170D01*
D32*
X1482850Y255170D03*
X1492670Y118700D03*
D33*
X1511510Y118700D01*
X1555380Y74830D02*
X1555380Y27990D01*
X1555380Y74830D02*
X1511510Y118700D01*
M02*
