G04 EAGLE Gerber RS-274X export*
G75*
%MOMM*%
%FSLAX34Y34*%
%LPD*%
%IN*%
%IPPOS*%
%AMOC8*
5,1,8,0,0,1.08239X$1,22.5*%
G01*
%ADD10C,0.254000*%


D10*
X-30000Y-30000D02*
X1750000Y-30000D01*
X1750000Y520000D01*
X-30000Y520000D01*
X-30000Y-30000D01*
X31300Y358900D02*
X41300Y358900D01*
X41300Y386900D01*
X31300Y386900D01*
X31300Y358900D01*
X92300Y356400D02*
X102300Y356400D01*
X102300Y389400D01*
X92300Y389400D01*
X92300Y356400D01*
X52300Y319900D02*
X80300Y319900D01*
X80300Y329900D01*
X52300Y329900D01*
X52300Y319900D01*
X1707500Y459427D02*
X1707425Y458284D01*
X1707276Y457148D01*
X1707052Y456024D01*
X1706755Y454917D01*
X1706387Y453832D01*
X1705949Y452774D01*
X1705442Y451746D01*
X1704869Y450754D01*
X1704232Y449801D01*
X1703535Y448892D01*
X1702779Y448031D01*
X1701969Y447221D01*
X1701108Y446465D01*
X1700199Y445768D01*
X1699246Y445131D01*
X1698254Y444558D01*
X1697226Y444051D01*
X1696168Y443613D01*
X1695083Y443245D01*
X1693976Y442948D01*
X1692852Y442725D01*
X1691716Y442575D01*
X1690573Y442500D01*
X1689427Y442500D01*
X1688284Y442575D01*
X1687148Y442725D01*
X1686024Y442948D01*
X1684917Y443245D01*
X1683832Y443613D01*
X1682774Y444051D01*
X1681746Y444558D01*
X1680754Y445131D01*
X1679801Y445768D01*
X1678892Y446465D01*
X1678031Y447221D01*
X1677221Y448031D01*
X1676465Y448892D01*
X1675768Y449801D01*
X1675131Y450754D01*
X1674558Y451746D01*
X1674051Y452774D01*
X1673613Y453832D01*
X1673245Y454917D01*
X1672948Y456024D01*
X1672725Y457148D01*
X1672575Y458284D01*
X1672500Y459427D01*
X1672500Y460573D01*
X1672575Y461716D01*
X1672725Y462852D01*
X1672948Y463976D01*
X1673245Y465083D01*
X1673613Y466168D01*
X1674051Y467226D01*
X1674558Y468254D01*
X1675131Y469246D01*
X1675768Y470199D01*
X1676465Y471108D01*
X1677221Y471969D01*
X1678031Y472779D01*
X1678892Y473535D01*
X1679801Y474232D01*
X1680754Y474869D01*
X1681746Y475442D01*
X1682774Y475949D01*
X1683832Y476387D01*
X1684917Y476755D01*
X1686024Y477052D01*
X1687148Y477276D01*
X1688284Y477425D01*
X1689427Y477500D01*
X1690573Y477500D01*
X1691716Y477425D01*
X1692852Y477276D01*
X1693976Y477052D01*
X1695083Y476755D01*
X1696168Y476387D01*
X1697226Y475949D01*
X1698254Y475442D01*
X1699246Y474869D01*
X1700199Y474232D01*
X1701108Y473535D01*
X1701969Y472779D01*
X1702779Y471969D01*
X1703535Y471108D01*
X1704232Y470199D01*
X1704869Y469246D01*
X1705442Y468254D01*
X1705949Y467226D01*
X1706387Y466168D01*
X1706755Y465083D01*
X1707052Y463976D01*
X1707276Y462852D01*
X1707425Y461716D01*
X1707500Y460573D01*
X1707500Y459427D01*
X1707500Y29427D02*
X1707425Y28284D01*
X1707276Y27148D01*
X1707052Y26024D01*
X1706755Y24917D01*
X1706387Y23832D01*
X1705949Y22774D01*
X1705442Y21746D01*
X1704869Y20754D01*
X1704232Y19801D01*
X1703535Y18892D01*
X1702779Y18031D01*
X1701969Y17221D01*
X1701108Y16465D01*
X1700199Y15768D01*
X1699246Y15131D01*
X1698254Y14558D01*
X1697226Y14051D01*
X1696168Y13613D01*
X1695083Y13245D01*
X1693976Y12948D01*
X1692852Y12725D01*
X1691716Y12575D01*
X1690573Y12500D01*
X1689427Y12500D01*
X1688284Y12575D01*
X1687148Y12725D01*
X1686024Y12948D01*
X1684917Y13245D01*
X1683832Y13613D01*
X1682774Y14051D01*
X1681746Y14558D01*
X1680754Y15131D01*
X1679801Y15768D01*
X1678892Y16465D01*
X1678031Y17221D01*
X1677221Y18031D01*
X1676465Y18892D01*
X1675768Y19801D01*
X1675131Y20754D01*
X1674558Y21746D01*
X1674051Y22774D01*
X1673613Y23832D01*
X1673245Y24917D01*
X1672948Y26024D01*
X1672725Y27148D01*
X1672575Y28284D01*
X1672500Y29427D01*
X1672500Y30573D01*
X1672575Y31716D01*
X1672725Y32852D01*
X1672948Y33976D01*
X1673245Y35083D01*
X1673613Y36168D01*
X1674051Y37226D01*
X1674558Y38254D01*
X1675131Y39246D01*
X1675768Y40199D01*
X1676465Y41108D01*
X1677221Y41969D01*
X1678031Y42779D01*
X1678892Y43535D01*
X1679801Y44232D01*
X1680754Y44869D01*
X1681746Y45442D01*
X1682774Y45949D01*
X1683832Y46387D01*
X1684917Y46755D01*
X1686024Y47052D01*
X1687148Y47276D01*
X1688284Y47425D01*
X1689427Y47500D01*
X1690573Y47500D01*
X1691716Y47425D01*
X1692852Y47276D01*
X1693976Y47052D01*
X1695083Y46755D01*
X1696168Y46387D01*
X1697226Y45949D01*
X1698254Y45442D01*
X1699246Y44869D01*
X1700199Y44232D01*
X1701108Y43535D01*
X1701969Y42779D01*
X1702779Y41969D01*
X1703535Y41108D01*
X1704232Y40199D01*
X1704869Y39246D01*
X1705442Y38254D01*
X1705949Y37226D01*
X1706387Y36168D01*
X1706755Y35083D01*
X1707052Y33976D01*
X1707276Y32852D01*
X1707425Y31716D01*
X1707500Y30573D01*
X1707500Y29427D01*
X47500Y29427D02*
X47425Y28284D01*
X47276Y27148D01*
X47052Y26024D01*
X46755Y24917D01*
X46387Y23832D01*
X45949Y22774D01*
X45442Y21746D01*
X44869Y20754D01*
X44232Y19801D01*
X43535Y18892D01*
X42779Y18031D01*
X41969Y17221D01*
X41108Y16465D01*
X40199Y15768D01*
X39246Y15131D01*
X38254Y14558D01*
X37226Y14051D01*
X36168Y13613D01*
X35083Y13245D01*
X33976Y12948D01*
X32852Y12725D01*
X31716Y12575D01*
X30573Y12500D01*
X29427Y12500D01*
X28284Y12575D01*
X27148Y12725D01*
X26024Y12948D01*
X24917Y13245D01*
X23832Y13613D01*
X22774Y14051D01*
X21746Y14558D01*
X20754Y15131D01*
X19801Y15768D01*
X18892Y16465D01*
X18031Y17221D01*
X17221Y18031D01*
X16465Y18892D01*
X15768Y19801D01*
X15131Y20754D01*
X14558Y21746D01*
X14051Y22774D01*
X13613Y23832D01*
X13245Y24917D01*
X12948Y26024D01*
X12725Y27148D01*
X12575Y28284D01*
X12500Y29427D01*
X12500Y30573D01*
X12575Y31716D01*
X12725Y32852D01*
X12948Y33976D01*
X13245Y35083D01*
X13613Y36168D01*
X14051Y37226D01*
X14558Y38254D01*
X15131Y39246D01*
X15768Y40199D01*
X16465Y41108D01*
X17221Y41969D01*
X18031Y42779D01*
X18892Y43535D01*
X19801Y44232D01*
X20754Y44869D01*
X21746Y45442D01*
X22774Y45949D01*
X23832Y46387D01*
X24917Y46755D01*
X26024Y47052D01*
X27148Y47276D01*
X28284Y47425D01*
X29427Y47500D01*
X30573Y47500D01*
X31716Y47425D01*
X32852Y47276D01*
X33976Y47052D01*
X35083Y46755D01*
X36168Y46387D01*
X37226Y45949D01*
X38254Y45442D01*
X39246Y44869D01*
X40199Y44232D01*
X41108Y43535D01*
X41969Y42779D01*
X42779Y41969D01*
X43535Y41108D01*
X44232Y40199D01*
X44869Y39246D01*
X45442Y38254D01*
X45949Y37226D01*
X46387Y36168D01*
X46755Y35083D01*
X47052Y33976D01*
X47276Y32852D01*
X47425Y31716D01*
X47500Y30573D01*
X47500Y29427D01*
X47500Y459427D02*
X47425Y458284D01*
X47276Y457148D01*
X47052Y456024D01*
X46755Y454917D01*
X46387Y453832D01*
X45949Y452774D01*
X45442Y451746D01*
X44869Y450754D01*
X44232Y449801D01*
X43535Y448892D01*
X42779Y448031D01*
X41969Y447221D01*
X41108Y446465D01*
X40199Y445768D01*
X39246Y445131D01*
X38254Y444558D01*
X37226Y444051D01*
X36168Y443613D01*
X35083Y443245D01*
X33976Y442948D01*
X32852Y442725D01*
X31716Y442575D01*
X30573Y442500D01*
X29427Y442500D01*
X28284Y442575D01*
X27148Y442725D01*
X26024Y442948D01*
X24917Y443245D01*
X23832Y443613D01*
X22774Y444051D01*
X21746Y444558D01*
X20754Y445131D01*
X19801Y445768D01*
X18892Y446465D01*
X18031Y447221D01*
X17221Y448031D01*
X16465Y448892D01*
X15768Y449801D01*
X15131Y450754D01*
X14558Y451746D01*
X14051Y452774D01*
X13613Y453832D01*
X13245Y454917D01*
X12948Y456024D01*
X12725Y457148D01*
X12575Y458284D01*
X12500Y459427D01*
X12500Y460573D01*
X12575Y461716D01*
X12725Y462852D01*
X12948Y463976D01*
X13245Y465083D01*
X13613Y466168D01*
X14051Y467226D01*
X14558Y468254D01*
X15131Y469246D01*
X15768Y470199D01*
X16465Y471108D01*
X17221Y471969D01*
X18031Y472779D01*
X18892Y473535D01*
X19801Y474232D01*
X20754Y474869D01*
X21746Y475442D01*
X22774Y475949D01*
X23832Y476387D01*
X24917Y476755D01*
X26024Y477052D01*
X27148Y477276D01*
X28284Y477425D01*
X29427Y477500D01*
X30573Y477500D01*
X31716Y477425D01*
X32852Y477276D01*
X33976Y477052D01*
X35083Y476755D01*
X36168Y476387D01*
X37226Y475949D01*
X38254Y475442D01*
X39246Y474869D01*
X40199Y474232D01*
X41108Y473535D01*
X41969Y472779D01*
X42779Y471969D01*
X43535Y471108D01*
X44232Y470199D01*
X44869Y469246D01*
X45442Y468254D01*
X45949Y467226D01*
X46387Y466168D01*
X46755Y465083D01*
X47052Y463976D01*
X47276Y462852D01*
X47425Y461716D01*
X47500Y460573D01*
X47500Y459427D01*
M02*
