G04 EAGLE Gerber RS-274X export*
G75*
%MOMM*%
%FSLAX34Y34*%
%LPD*%
%INSolderpaste Top*%
%IPPOS*%
%AMOC8*
5,1,8,0,0,1.08239X$1,22.5*%
G01*
%ADD10R,10.800000X10.410000*%
%ADD11R,1.066800X2.159000*%
%ADD12R,1.900000X4.700000*%
%ADD13R,1.300000X3.600000*%
%ADD14R,1.600000X1.803000*%
%ADD15R,1.803000X1.600000*%
%ADD16R,0.660400X2.032000*%
%ADD17R,1.000000X1.100000*%
%ADD18R,1.500000X1.300000*%
%ADD19R,2.400000X2.400000*%
%ADD20R,1.200000X0.550000*%
%ADD21R,0.700000X0.900000*%
%ADD22R,4.500000X3.500000*%
%ADD23R,1.300000X1.500000*%
%ADD24R,6.200000X5.400000*%
%ADD25R,1.600000X1.000000*%
%ADD26R,1.600000X3.000000*%


D10*
X410400Y408500D03*
D11*
X376364Y325188D03*
X393382Y325188D03*
X410400Y325188D03*
X427418Y325188D03*
X444436Y325188D03*
D10*
X266102Y174784D03*
D11*
X232066Y91472D03*
X249084Y91472D03*
X266102Y91472D03*
X283120Y91472D03*
X300138Y91472D03*
D12*
X266392Y323762D03*
X266392Y413762D03*
D13*
X563600Y206700D03*
X563600Y127950D03*
X714114Y352236D03*
X714114Y430986D03*
D14*
X149230Y427628D03*
X177670Y427628D03*
D15*
X803348Y380820D03*
X803348Y352380D03*
X652240Y187130D03*
X652240Y215570D03*
D14*
X164292Y279032D03*
X135852Y279032D03*
D16*
X836850Y90134D03*
X836850Y28666D03*
X824150Y90134D03*
X811450Y90134D03*
X824150Y28666D03*
X811450Y28666D03*
X798750Y90134D03*
X798750Y28666D03*
D17*
X898100Y54364D03*
X915100Y54364D03*
D15*
X755700Y74120D03*
X755700Y45680D03*
D18*
X652388Y140098D03*
X652388Y121098D03*
X803200Y413100D03*
X803200Y432100D03*
X171248Y306472D03*
X171248Y325472D03*
D19*
X388340Y56630D03*
X432340Y56630D03*
X534404Y271202D03*
X578404Y271202D03*
D20*
X1431200Y218300D03*
X1431200Y227800D03*
X1431200Y237300D03*
X1405200Y237300D03*
X1405200Y218300D03*
D21*
X1523126Y377404D03*
X1510126Y377404D03*
D14*
X1264954Y75268D03*
X1236514Y75268D03*
X1367502Y153332D03*
X1395942Y153332D03*
D22*
X372760Y164524D03*
X461760Y164524D03*
X525300Y390800D03*
X614300Y390800D03*
D16*
X1319050Y250734D03*
X1319050Y189266D03*
X1306350Y250734D03*
X1293650Y250734D03*
X1306350Y189266D03*
X1293650Y189266D03*
X1280950Y250734D03*
X1280950Y189266D03*
D23*
X1290500Y290000D03*
X1309500Y290000D03*
D18*
X133396Y305848D03*
X133396Y324848D03*
D14*
X1435780Y430000D03*
X1464220Y430000D03*
D23*
X1399500Y430000D03*
X1380500Y430000D03*
D14*
X1435780Y470000D03*
X1464220Y470000D03*
D23*
X1399500Y470000D03*
X1380500Y470000D03*
D24*
X645000Y60000D03*
D25*
X718000Y37200D03*
X718000Y82800D03*
D26*
X1218370Y466060D03*
X1218370Y422060D03*
M02*
