G04 EAGLE Gerber RS-274X export*
G75*
%MOMM*%
%FSLAX34Y34*%
%LPD*%
%INSoldermask Top*%
%IPPOS*%
%AMOC8*
5,1,8,0,0,1.08239X$1,22.5*%
G01*
%ADD10C,3.703200*%
%ADD11R,11.003200X10.613200*%
%ADD12R,1.270000X2.362200*%
%ADD13R,2.103200X4.903200*%
%ADD14R,1.503200X3.803200*%
%ADD15C,1.727200*%
%ADD16R,1.803200X2.006200*%
%ADD17C,2.203200*%
%ADD18R,2.006200X1.803200*%
%ADD19R,0.863600X2.235200*%
%ADD20R,1.203200X1.303200*%
%ADD21R,1.703200X1.503200*%
%ADD22R,2.603200X2.603200*%
%ADD23C,4.219200*%
%ADD24R,1.403200X0.753200*%
%ADD25R,0.903200X1.103200*%
%ADD26R,4.703200X3.703200*%
%ADD27R,1.503200X1.703200*%
%ADD28C,1.703200*%
%ADD29C,1.903200*%
%ADD30R,6.403200X5.603200*%
%ADD31R,1.803200X1.203200*%
%ADD32R,1.803200X3.203200*%
%ADD33C,1.103200*%


D10*
X1690000Y460000D03*
X1690000Y30000D03*
X30000Y30000D03*
X30000Y460000D03*
D11*
X410400Y408500D03*
D12*
X376364Y325188D03*
X393382Y325188D03*
X410400Y325188D03*
X427418Y325188D03*
X444436Y325188D03*
D11*
X266102Y174784D03*
D12*
X232066Y91472D03*
X249084Y91472D03*
X266102Y91472D03*
X283120Y91472D03*
X300138Y91472D03*
D13*
X266392Y323762D03*
X266392Y413762D03*
D14*
X563600Y206700D03*
X563600Y127950D03*
X714114Y352236D03*
X714114Y430986D03*
D15*
X738150Y246094D02*
X738150Y230854D01*
X763550Y230854D02*
X763550Y246094D01*
X788950Y246094D02*
X788950Y230854D01*
X814350Y230854D02*
X814350Y246094D01*
X839750Y246094D02*
X839750Y230854D01*
X865150Y230854D02*
X865150Y246094D01*
D16*
X149230Y427628D03*
X177670Y427628D03*
D17*
X97300Y382900D02*
X97300Y362900D01*
X36300Y362900D02*
X36300Y382900D01*
X56300Y324900D02*
X76300Y324900D01*
D18*
X803348Y380820D03*
X803348Y352380D03*
X652240Y187130D03*
X652240Y215570D03*
D16*
X164292Y279032D03*
X135852Y279032D03*
D19*
X836850Y90134D03*
X836850Y28666D03*
X824150Y90134D03*
X811450Y90134D03*
X824150Y28666D03*
X811450Y28666D03*
X798750Y90134D03*
X798750Y28666D03*
D20*
X898100Y54364D03*
X915100Y54364D03*
D18*
X755700Y74120D03*
X755700Y45680D03*
D21*
X652388Y140098D03*
X652388Y121098D03*
X803200Y413100D03*
X803200Y432100D03*
X171248Y306472D03*
X171248Y325472D03*
D22*
X388340Y56630D03*
X432340Y56630D03*
X534404Y271202D03*
X578404Y271202D03*
D23*
X1563600Y232460D03*
X1601400Y182110D03*
X1601400Y288810D03*
X1639400Y210060D03*
X1639400Y260860D03*
D24*
X1431200Y218300D03*
X1431200Y227800D03*
X1431200Y237300D03*
X1405200Y237300D03*
X1405200Y218300D03*
D25*
X1523126Y377404D03*
X1510126Y377404D03*
D15*
X1393056Y44480D02*
X1393056Y29240D01*
X1367656Y29240D02*
X1367656Y44480D01*
X1342256Y44480D02*
X1342256Y29240D01*
X1316856Y29240D02*
X1316856Y44480D01*
X1291456Y44480D02*
X1291456Y29240D01*
X1266056Y29240D02*
X1266056Y44480D01*
X1240656Y44480D02*
X1240656Y29240D01*
X1215256Y29240D02*
X1215256Y44480D01*
D16*
X1264954Y75268D03*
X1236514Y75268D03*
X1367502Y153332D03*
X1395942Y153332D03*
D26*
X372760Y164524D03*
X461760Y164524D03*
X525300Y390800D03*
X614300Y390800D03*
D19*
X1319050Y250734D03*
X1319050Y189266D03*
X1306350Y250734D03*
X1293650Y250734D03*
X1306350Y189266D03*
X1293650Y189266D03*
X1280950Y250734D03*
X1280950Y189266D03*
D27*
X1290500Y290000D03*
X1309500Y290000D03*
D28*
X1037600Y120500D02*
X1037600Y105500D01*
X1063000Y105500D02*
X1063000Y120500D01*
X1088400Y120500D02*
X1088400Y105500D01*
X1113800Y105500D02*
X1113800Y120500D01*
X1139200Y120500D02*
X1139200Y105500D01*
X1164600Y105500D02*
X1164600Y120500D01*
X1190000Y120500D02*
X1190000Y105500D01*
X1215400Y105500D02*
X1215400Y120500D01*
X1240800Y120500D02*
X1240800Y105500D01*
X1266200Y105500D02*
X1266200Y120500D01*
X1291600Y120500D02*
X1291600Y105500D01*
X1317000Y105500D02*
X1317000Y120500D01*
X1342400Y120500D02*
X1342400Y105500D01*
X1367800Y105500D02*
X1367800Y120500D01*
X1393200Y120500D02*
X1393200Y105500D01*
X1037600Y359500D02*
X1037600Y374500D01*
X1063000Y374500D02*
X1063000Y359500D01*
X1088400Y359500D02*
X1088400Y374500D01*
X1113800Y374500D02*
X1113800Y359500D01*
X1139200Y359500D02*
X1139200Y374500D01*
X1164600Y374500D02*
X1164600Y359500D01*
X1190000Y359500D02*
X1190000Y374500D01*
X1215400Y374500D02*
X1215400Y359500D01*
X1240800Y359500D02*
X1240800Y374500D01*
X1266200Y374500D02*
X1266200Y359500D01*
X1291600Y359500D02*
X1291600Y374500D01*
X1317000Y374500D02*
X1317000Y359500D01*
X1342400Y359500D02*
X1342400Y374500D01*
X1367800Y374500D02*
X1367800Y359500D01*
X1393200Y359500D02*
X1393200Y374500D01*
D29*
X532500Y49000D03*
X567500Y49000D03*
X1282500Y449000D03*
X1317500Y449000D03*
D15*
X1110948Y464186D02*
X1095708Y464186D01*
X1095708Y418974D02*
X1110948Y418974D01*
X1160732Y464186D02*
X1175972Y464186D01*
X1175972Y418974D02*
X1160732Y418974D01*
D29*
X1002500Y449000D03*
X1037500Y449000D03*
X61602Y205078D03*
X61602Y240078D03*
D21*
X133396Y305848D03*
X133396Y324848D03*
D16*
X1435780Y430000D03*
X1464220Y430000D03*
D27*
X1399500Y430000D03*
X1380500Y430000D03*
D16*
X1435780Y470000D03*
X1464220Y470000D03*
D27*
X1399500Y470000D03*
X1380500Y470000D03*
D30*
X645000Y60000D03*
D31*
X718000Y37200D03*
X718000Y82800D03*
D32*
X1218370Y466060D03*
X1218370Y422060D03*
D29*
X1562510Y447950D03*
X1597510Y447950D03*
D33*
X952754Y276098D03*
X927608Y287274D03*
X275000Y260000D03*
X275000Y270000D03*
X265000Y270000D03*
X255000Y270000D03*
X255000Y260000D03*
X265000Y260000D03*
X255000Y280000D03*
X265000Y280000D03*
X275000Y280000D03*
X440000Y280000D03*
X440000Y290000D03*
X430000Y290000D03*
X420000Y290000D03*
X420000Y280000D03*
X430000Y280000D03*
X420000Y300000D03*
X430000Y300000D03*
X440000Y300000D03*
X295000Y45000D03*
X295000Y55000D03*
X285000Y55000D03*
X275000Y55000D03*
X275000Y45000D03*
X285000Y45000D03*
X275000Y65000D03*
X285000Y65000D03*
X295000Y65000D03*
X630000Y260000D03*
X630000Y270000D03*
X620000Y270000D03*
X610000Y270000D03*
X610000Y260000D03*
X620000Y260000D03*
X610000Y280000D03*
X620000Y280000D03*
X630000Y280000D03*
X485000Y45000D03*
X485000Y55000D03*
X475000Y55000D03*
X465000Y55000D03*
X465000Y45000D03*
X475000Y45000D03*
X465000Y65000D03*
X475000Y65000D03*
X485000Y65000D03*
X910000Y110000D03*
X737108Y205740D03*
X1453642Y227330D03*
X1373378Y256286D03*
X1300000Y60000D03*
X1100000Y80000D03*
X755000Y150000D03*
X870000Y150000D03*
X1145000Y240000D03*
X1180000Y170000D03*
X1405000Y300000D03*
X1335000Y320000D03*
X1350000Y135000D03*
X1292500Y171250D03*
X1258750Y225000D03*
X1220000Y245000D03*
X1240000Y240000D03*
X1310000Y270000D03*
X1340000Y270000D03*
X1410000Y340000D03*
X1135000Y230000D03*
X1385000Y445000D03*
X1450000Y380000D03*
M02*
