G04 EAGLE Gerber RS-274X export*
G75*
%MOMM*%
%FSLAX34Y34*%
%LPD*%
%INSoldermask Bottom*%
%IPPOS*%
%AMOC8*
5,1,8,0,0,1.08239X$1,22.5*%
G01*
%ADD10C,3.703200*%
%ADD11R,1.703200X1.503200*%
%ADD12R,1.503200X1.703200*%
%ADD13C,1.727200*%
%ADD14R,1.403200X0.753200*%
%ADD15C,2.203200*%
%ADD16R,0.753200X1.403200*%
%ADD17C,4.219200*%
%ADD18C,1.703200*%
%ADD19C,1.903200*%
%ADD20C,1.103200*%


D10*
X1690000Y460000D03*
X1690000Y30000D03*
X30000Y30000D03*
X30000Y460000D03*
D11*
X1103200Y178950D03*
X1103200Y159950D03*
X1103200Y229100D03*
X1103200Y210100D03*
D12*
X1136900Y313200D03*
X1155900Y313200D03*
D13*
X738150Y246094D02*
X738150Y230854D01*
X763550Y230854D02*
X763550Y246094D01*
X788950Y246094D02*
X788950Y230854D01*
X814350Y230854D02*
X814350Y246094D01*
X839750Y246094D02*
X839750Y230854D01*
X865150Y230854D02*
X865150Y246094D01*
D14*
X1138390Y254940D03*
X1138390Y264440D03*
X1138390Y273940D03*
X1164390Y273940D03*
X1164390Y254940D03*
D15*
X97300Y362900D02*
X97300Y382900D01*
X36300Y382900D02*
X36300Y362900D01*
X56300Y324900D02*
X76300Y324900D01*
D12*
X1085600Y314300D03*
X1104600Y314300D03*
X1029100Y314300D03*
X1048100Y314300D03*
D11*
X1104300Y277400D03*
X1104300Y258400D03*
D12*
X976100Y314300D03*
X995100Y314300D03*
D16*
X877900Y190400D03*
X887400Y190400D03*
X896900Y190400D03*
X896900Y164400D03*
X877900Y164400D03*
X737900Y192000D03*
X747400Y192000D03*
X756900Y192000D03*
X756900Y166000D03*
X737900Y166000D03*
D14*
X943600Y262100D03*
X943600Y252600D03*
X943600Y243100D03*
X917600Y243100D03*
X917600Y262100D03*
D11*
X936800Y182100D03*
X936800Y163100D03*
D12*
X849670Y172860D03*
X830670Y172860D03*
D11*
X941600Y107900D03*
X941600Y126900D03*
D12*
X942100Y310800D03*
X923100Y310800D03*
D17*
X1563600Y232460D03*
X1601400Y182110D03*
X1601400Y288810D03*
X1639400Y210060D03*
X1639400Y260860D03*
D13*
X1393056Y44480D02*
X1393056Y29240D01*
X1367656Y29240D02*
X1367656Y44480D01*
X1342256Y44480D02*
X1342256Y29240D01*
X1316856Y29240D02*
X1316856Y44480D01*
X1291456Y44480D02*
X1291456Y29240D01*
X1266056Y29240D02*
X1266056Y44480D01*
X1240656Y44480D02*
X1240656Y29240D01*
X1215256Y29240D02*
X1215256Y44480D01*
D18*
X1037600Y105500D02*
X1037600Y120500D01*
X1063000Y120500D02*
X1063000Y105500D01*
X1088400Y105500D02*
X1088400Y120500D01*
X1113800Y120500D02*
X1113800Y105500D01*
X1139200Y105500D02*
X1139200Y120500D01*
X1164600Y120500D02*
X1164600Y105500D01*
X1190000Y105500D02*
X1190000Y120500D01*
X1215400Y120500D02*
X1215400Y105500D01*
X1240800Y105500D02*
X1240800Y120500D01*
X1266200Y120500D02*
X1266200Y105500D01*
X1291600Y105500D02*
X1291600Y120500D01*
X1317000Y120500D02*
X1317000Y105500D01*
X1342400Y105500D02*
X1342400Y120500D01*
X1367800Y120500D02*
X1367800Y105500D01*
X1393200Y105500D02*
X1393200Y120500D01*
X1037600Y359500D02*
X1037600Y374500D01*
X1063000Y374500D02*
X1063000Y359500D01*
X1088400Y359500D02*
X1088400Y374500D01*
X1113800Y374500D02*
X1113800Y359500D01*
X1139200Y359500D02*
X1139200Y374500D01*
X1164600Y374500D02*
X1164600Y359500D01*
X1190000Y359500D02*
X1190000Y374500D01*
X1215400Y374500D02*
X1215400Y359500D01*
X1240800Y359500D02*
X1240800Y374500D01*
X1266200Y374500D02*
X1266200Y359500D01*
X1291600Y359500D02*
X1291600Y374500D01*
X1317000Y374500D02*
X1317000Y359500D01*
X1342400Y359500D02*
X1342400Y374500D01*
X1367800Y374500D02*
X1367800Y359500D01*
X1393200Y359500D02*
X1393200Y374500D01*
D19*
X532500Y49000D03*
X567500Y49000D03*
X1282500Y449000D03*
X1317500Y449000D03*
D13*
X1110948Y464186D02*
X1095708Y464186D01*
X1095708Y418974D02*
X1110948Y418974D01*
X1160732Y464186D02*
X1175972Y464186D01*
X1175972Y418974D02*
X1160732Y418974D01*
D19*
X1002500Y449000D03*
X1037500Y449000D03*
X61602Y205078D03*
X61602Y240078D03*
X1562510Y447950D03*
X1597510Y447950D03*
D13*
X1529980Y35610D02*
X1529980Y20370D01*
X1555380Y20370D02*
X1555380Y35610D01*
X1580780Y35610D02*
X1580780Y20370D01*
D20*
X952754Y276098D03*
X927608Y287274D03*
X275000Y260000D03*
X275000Y270000D03*
X265000Y270000D03*
X255000Y270000D03*
X255000Y260000D03*
X265000Y260000D03*
X255000Y280000D03*
X265000Y280000D03*
X275000Y280000D03*
X440000Y280000D03*
X440000Y290000D03*
X430000Y290000D03*
X420000Y290000D03*
X420000Y280000D03*
X430000Y280000D03*
X420000Y300000D03*
X430000Y300000D03*
X440000Y300000D03*
X295000Y45000D03*
X295000Y55000D03*
X285000Y55000D03*
X275000Y55000D03*
X275000Y45000D03*
X285000Y45000D03*
X275000Y65000D03*
X285000Y65000D03*
X295000Y65000D03*
X630000Y260000D03*
X630000Y270000D03*
X620000Y270000D03*
X610000Y270000D03*
X610000Y260000D03*
X620000Y260000D03*
X610000Y280000D03*
X620000Y280000D03*
X630000Y280000D03*
X485000Y45000D03*
X485000Y55000D03*
X475000Y55000D03*
X465000Y55000D03*
X465000Y45000D03*
X475000Y45000D03*
X465000Y65000D03*
X475000Y65000D03*
X485000Y65000D03*
X910000Y110000D03*
X737108Y205740D03*
X1453642Y227330D03*
X1373378Y256286D03*
X1300000Y60000D03*
X1100000Y80000D03*
X755000Y150000D03*
X870000Y150000D03*
X1145000Y240000D03*
X1180000Y170000D03*
X1446980Y137610D03*
X1431490Y187130D03*
X1405000Y300000D03*
X1335000Y320000D03*
X1350000Y135000D03*
X1292500Y171250D03*
X1258750Y225000D03*
X1220000Y245000D03*
X1240000Y240000D03*
X1310000Y270000D03*
X1340000Y270000D03*
X1410000Y340000D03*
X1135000Y230000D03*
X1385000Y445000D03*
X1450000Y380000D03*
X1354910Y317020D03*
X1480960Y309990D03*
X1482850Y255170D03*
X1492670Y118700D03*
M02*
