M48
;GenerationSoftware,Autodesk,EAGLE,9.6.2*%
;CreationDate,2021-01-10T19:10:40Z*%
FMAT,2
ICI,OFF
METRIC,TZ,000.000
T6C0.400
T5C1.000
T4C1.016
T3C1.100
T2C3.000
T1C3.500
%
G90
M71
T1
X169000Y46000
X3000Y46000
X169000Y3000
X3000Y3000
T2
X163940Y26086
X156360Y23246
X160140Y18211
X160140Y28881
X163940Y21006
T3
X103750Y44900
X100250Y44900
X156251Y44795
X6160Y24008
X131750Y44900
X128250Y44900
X56750Y4900
X53250Y4900
X159751Y44795
X6160Y20508
T4
X116835Y41897
X116835Y46419
X131686Y3686
X129146Y3686
X126606Y3686
X124066Y3686
X86515Y23847
X83975Y23847
X81435Y23847
X78895Y23847
X76355Y23847
X73815Y23847
X121526Y3686
X110333Y46419
X110333Y41897
X136766Y3686
X139306Y3686
X134226Y3686
T5
X126620Y11300
X9730Y37290
X3630Y37290
X6630Y32490
X103760Y11300
X106300Y11300
X108840Y11300
X111380Y11300
X113920Y11300
X116460Y11300
X119000Y11300
X121540Y11300
X124080Y11300
X129160Y11300
X131700Y11300
X134240Y11300
X136780Y11300
X139320Y11300
X103760Y36700
X106300Y36700
X108840Y36700
X111380Y36700
X113920Y36700
X116460Y36700
X119000Y36700
X121540Y36700
X124080Y36700
X126620Y36700
X129160Y36700
X134240Y36700
X136780Y36700
X139320Y36700
X131700Y36700
T6
X95275Y27610
X92761Y28727
X27500Y26000
X27500Y27000
X26500Y27000
X25500Y27000
X25500Y26000
X26500Y26000
X25500Y28000
X26500Y28000
X27500Y28000
X44000Y28000
X44000Y29000
X43000Y29000
X42000Y29000
X42000Y28000
X43000Y28000
X43000Y30000
X44000Y30000
X29500Y4500
X29500Y5500
X28500Y5500
X27500Y5500
X27500Y4500
X28500Y4500
X27500Y6500
X28500Y6500
X29500Y6500
X63000Y26000
X63000Y27000
X62000Y27000
X61000Y27000
X61000Y26000
X138500Y44500
X113500Y23000
X91000Y11000
X129250Y17125
X135000Y13500
X133500Y32000
X140500Y30000
X75500Y15000
X118000Y17000
X114500Y24000
X87000Y15000
X110000Y8000
X130000Y6000
X137338Y25629
X145364Y22733
X73711Y20574
X141000Y34000
X134000Y27000
X131000Y27000
X42000Y30000
X124000Y24000
X122000Y24500
X125875Y22500
X48500Y6500
X47500Y6500
X46500Y6500
X47500Y4500
X46500Y4500
X46500Y5500
X47500Y5500
X48500Y5500
X48500Y4500
X63000Y28000
X62000Y28000
X61000Y28000
X62000Y26000
X145000Y38000
M30